<?xml version="1.0" encoding="UTF-8"?>
<svg width="18px" height="20px" viewBox="0 0 18 20" version="1.1" xmlns="http://www.w3.org/2000/svg" xmlns:xlink="http://www.w3.org/1999/xlink">
    <!-- Generator: Sketch 58 (84663) - https://sketch.com -->
    <title>user (1)</title>
    <desc>Created with Sketch.</desc>
    <g id="Page-1" stroke="none" stroke-width="1" fill="none" fill-rule="evenodd">
        <g id="Home--N-" transform="translate(-333.000000, -1285.000000)" fill="#BEBEBE" fill-rule="nonzero">
            <g id="Group-10" transform="translate(0.000000, 1262.000000)">
                <g id="Group-19" transform="translate(24.000000, 22.000000)">
                    <g id="Group-17" transform="translate(305.000000, 1.000000)">
                        <g id="user-(1)" transform="translate(4.000000, 0.000000)">
                            <path d="M8.7199797,10.4800196 C4.1324399,10.4800196 0.399960072,14.2124994 0.399960072,18.8000392 C0.399960072,19.1533192 0.686700059,19.4400592 1.03998004,19.4400592 C1.39326003,19.4400592 1.68000001,19.1532592 1.68000001,18.7999792 C1.68000001,14.9177394 4.83773987,11.7599995 8.7199797,11.7599995 C12.6022195,11.7599995 15.7599594,14.9177394 15.7599594,18.7999792 C15.7599594,19.1532592 16.0466994,19.4400592 16.3999794,19.4400592 C16.7532593,19.4400592 17.0399993,19.1532592 17.0399993,18.7999792 C17.0399993,14.2124994 13.3075195,10.4800196 8.7199797,10.4800196 Z" id="Path"></path>
                            <path d="M8.7199797,0.240000043 C6.24959981,0.240000043 4.2399599,2.24957995 4.2399599,4.72001984 C4.2399599,7.19045973 6.24953981,9.20003964 8.7199797,9.20003964 C11.1904196,9.20003964 13.1999995,7.19039973 13.1999995,4.72001984 C13.1999995,2.24963995 11.1904196,0.240000043 8.7199797,0.240000043 Z M8.7199797,7.9199997 C6.95615978,7.9199997 5.51999984,6.48383976 5.51999984,4.72001984 C5.51999984,2.95619992 6.95615978,1.52003999 8.7199797,1.52003999 C10.4837996,1.52003999 11.9199596,2.95619992 11.9199596,4.72001984 C11.9199596,6.48383976 10.4838596,7.9199997 8.7199797,7.9199997 Z" id="Shape"></path>
                        </g>
                    </g>
                </g>
            </g>
        </g>
    </g>
</svg>