<?xml version="1.0" encoding="UTF-8"?>
<svg width="19px" height="19px" viewBox="0 0 19 19" version="1.1" xmlns="http://www.w3.org/2000/svg" xmlns:xlink="http://www.w3.org/1999/xlink">
    <!-- Generator: Sketch 58 (84663) - https://sketch.com -->
    <title>calendar (4)</title>
    <desc>Created with Sketch.</desc>
    <g id="Page-1" stroke="none" stroke-width="1" fill="none" fill-rule="evenodd">
        <g id="Filter--N--" transform="translate(-303.000000, -708.000000)" fill="#E41F7B" fill-rule="nonzero">
            <g id="calendar-(4)" transform="translate(303.000000, 708.000000)">
                <path d="M16.5888002,11.7059452 L16.5888002,3.07200003 C16.5888002,2.22509877 15.8997014,1.53600002 15.0528001,1.53600002 L14.4384001,1.53600002 L14.4384001,0.921600009 C14.4384001,0.413399044 14.0250011,0 13.5168001,0 C13.0085992,0 12.5952001,0.413399044 12.5952001,0.921600009 L12.5952001,1.53600002 L11.0592001,1.53600002 L11.0592001,0.921600009 C11.0592001,0.413399044 10.6458011,0 10.1376001,0 C9.62939914,0 9.21600009,0.413399044 9.21600009,0.921600009 L9.21600009,1.53600002 L7.37280007,1.53600002 L7.37280007,0.921600009 C7.37280007,0.413399044 6.95940103,0 6.45120006,0 C5.9429991,0 5.52960005,0.413399044 5.52960005,0.921600009 L5.52960005,1.53600002 L3.99360004,1.53600002 L3.99360004,0.921600009 C3.99360004,0.413399044 3.580201,0 3.07200003,0 C2.56379907,0 2.15040002,0.413399044 2.15040002,0.921600009 L2.15040002,1.53600002 L1.53600002,1.53600002 C0.689098759,1.53600002 0,2.22509877 0,3.07200003 L0,15.3600002 C0,16.2069014 0.689098759,16.8960002 1.53600002,16.8960002 L11.8651301,16.8960002 C12.5037006,17.996025 13.6917935,18.7392002 15.0528001,18.7392002 C17.0856009,18.7392002 18.7392002,17.0856009 18.7392002,15.0528001 C18.7392002,13.5685879 17.8558128,12.2898187 16.5888002,11.7059452 Z M13.2096001,0.921600009 C13.2096001,0.752099335 13.3472995,0.614400006 13.5168001,0.614400006 C13.6863008,0.614400006 13.8240001,0.752099335 13.8240001,0.921600009 L13.8240001,2.76480003 C13.8240001,2.9343007 13.6863008,3.07200003 13.5168001,3.07200003 C13.3472995,3.07200003 13.2096001,2.9343007 13.2096001,2.76480003 L13.2096001,0.921600009 Z M9.8304001,0.921600009 C9.8304001,0.752099335 9.96809943,0.614400006 10.1376001,0.614400006 C10.3071008,0.614400006 10.4448001,0.752099335 10.4448001,0.921600009 L10.4448001,2.76480003 C10.4448001,2.9343007 10.3071008,3.07200003 10.1376001,3.07200003 C9.96809943,3.07200003 9.8304001,2.9343007 9.8304001,2.76480003 L9.8304001,0.921600009 Z M6.14400006,0.921600009 C6.14400006,0.752099335 6.28169939,0.614400006 6.45120006,0.614400006 C6.62070074,0.614400006 6.75840007,0.752099335 6.75840007,0.921600009 L6.75840007,2.76480003 C6.75840007,2.9343007 6.62070074,3.07200003 6.45120006,3.07200003 C6.28169939,3.07200003 6.14400006,2.9343007 6.14400006,2.76480003 L6.14400006,0.921600009 Z M2.76480003,0.921600009 C2.76480003,0.752099335 2.90249936,0.614400006 3.07200003,0.614400006 C3.2415007,0.614400006 3.37920003,0.752099335 3.37920003,0.921600009 L3.37920003,2.76480003 C3.37920003,2.9343007 3.2415007,3.07200003 3.07200003,3.07200003 C2.90249936,3.07200003 2.76480003,2.9343007 2.76480003,2.76480003 L2.76480003,0.921600009 Z M1.53600002,2.15040002 L2.15040002,2.15040002 L2.15040002,2.76480003 C2.15040002,3.27300099 2.56379907,3.68640004 3.07200003,3.68640004 C3.580201,3.68640004 3.99360004,3.27300099 3.99360004,2.76480003 L3.99360004,2.15040002 L5.52960005,2.15040002 L5.52960005,2.76480003 C5.52960005,3.27300099 5.9429991,3.68640004 6.45120006,3.68640004 C6.95940103,3.68640004 7.37280007,3.27300099 7.37280007,2.76480003 L7.37280007,2.15040002 L9.21600009,2.15040002 L9.21600009,2.76480003 C9.21600009,3.27300099 9.62939914,3.68640004 10.1376001,3.68640004 C10.6458011,3.68640004 11.0592001,3.27300099 11.0592001,2.76480003 L11.0592001,2.15040002 L12.5952001,2.15040002 L12.5952001,2.76480003 C12.5952001,3.27300099 13.0085992,3.68640004 13.5168001,3.68640004 C14.0250011,3.68640004 14.4384001,3.27300099 14.4384001,2.76480003 L14.4384001,2.15040002 L15.0528001,2.15040002 C15.5610011,2.15040002 15.9744002,2.56379907 15.9744002,3.07200003 L15.9744002,4.60800005 L0.614400006,4.60800005 L0.614400006,3.07200003 C0.614400006,2.56379907 1.02779905,2.15040002 1.53600002,2.15040002 Z M1.53600002,16.2816002 C1.02779905,16.2816002 0.614400006,15.8682011 0.614400006,15.3600002 L0.614400006,5.22240005 L15.9744002,5.22240005 L15.9744002,11.487695 C15.6792363,11.4113066 15.3715324,11.3664001 15.0528001,11.3664001 C14.843044,11.3664001 14.63867,11.3880761 14.4384001,11.4218804 L14.4384001,9.8304001 C14.4384001,9.66060144 14.3009988,9.52320009 14.1312001,9.52320009 L12.2880001,9.52320009 C12.1182015,9.52320009 11.9808001,9.66060144 11.9808001,9.8304001 L11.9808001,11.6736001 C11.9808001,11.8433988 12.1182015,11.9808001 12.2880001,11.9808001 L13.0194003,11.9808001 C12.0243365,12.6416058 11.3664001,13.7712938 11.3664001,15.0528001 C11.3664001,15.4841427 11.4447177,15.896568 11.5814432,16.2816002 L1.53600002,16.2816002 Z M13.8240001,11.3664001 L12.5952001,11.3664001 L12.5952001,10.1376001 L13.8240001,10.1376001 L13.8240001,11.3664001 Z M15.0528001,18.1248002 C13.3590007,18.1248002 11.9808001,16.7465996 11.9808001,15.0528001 C11.9808001,13.3590007 13.3590007,11.9808001 15.0528001,11.9808001 C16.7465996,11.9808001 18.1248002,13.3590007 18.1248002,15.0528001 C18.1248002,16.7465996 16.7465996,18.1248002 15.0528001,18.1248002 Z" id="Shape"></path>
                <path d="M15.3600002,14.5236174 L15.3600002,12.5952001 L14.7456001,12.5952001 L14.7456001,14.5236174 C14.5627301,14.6300438 14.4384001,14.8259422 14.4384001,15.0528001 C14.4384001,15.0839072 14.443088,15.1137363 14.4475516,15.143587 L13.3248001,16.0416002 L13.7088001,16.5216002 L14.8305747,15.6241676 C14.8996702,15.6510752 14.9742,15.6672002 15.0528001,15.6672002 C15.3921179,15.6672002 15.6672002,15.3921179 15.6672002,15.0528001 C15.6672002,14.8259452 15.5428702,14.6300438 15.3600002,14.5236174 Z" id="Path"></path>
                <path d="M3.99360004,6.14400006 L2.15040002,6.14400006 C1.98060136,6.14400006 1.84320002,6.28140141 1.84320002,6.45120006 L1.84320002,8.29440008 C1.84320002,8.46419874 1.98060136,8.60160009 2.15040002,8.60160009 L3.99360004,8.60160009 C4.1633987,8.60160009 4.30080004,8.46419874 4.30080004,8.29440008 L4.30080004,6.45120006 C4.30080004,6.28140141 4.1633987,6.14400006 3.99360004,6.14400006 Z M3.68640004,7.98720008 L2.45760002,7.98720008 L2.45760002,6.75840007 L3.68640004,6.75840007 L3.68640004,7.98720008 Z" id="Shape"></path>
                <path d="M7.37280007,6.14400006 L5.52960005,6.14400006 C5.3598014,6.14400006 5.22240005,6.28140141 5.22240005,6.45120006 L5.22240005,8.29440008 C5.22240005,8.46419874 5.3598014,8.60160009 5.52960005,8.60160009 L7.37280007,8.60160009 C7.54259873,8.60160009 7.68000008,8.46419874 7.68000008,8.29440008 L7.68000008,6.45120006 C7.68000008,6.28140141 7.54259873,6.14400006 7.37280007,6.14400006 Z M7.06560007,7.98720008 L5.83680006,7.98720008 L5.83680006,6.75840007 L7.06560007,6.75840007 L7.06560007,7.98720008 Z" id="Shape"></path>
                <path d="M10.7520001,6.14400006 L8.90880009,6.14400006 C8.73900143,6.14400006 8.60160009,6.28140141 8.60160009,6.45120006 L8.60160009,8.29440008 C8.60160009,8.46419874 8.73900143,8.60160009 8.90880009,8.60160009 L10.7520001,8.60160009 C10.9217988,8.60160009 11.0592001,8.46419874 11.0592001,8.29440008 L11.0592001,6.45120006 C11.0592001,6.28140141 10.9217988,6.14400006 10.7520001,6.14400006 Z M10.4448001,7.98720008 L9.21600009,7.98720008 L9.21600009,6.75840007 L10.4448001,6.75840007 L10.4448001,7.98720008 Z" id="Shape"></path>
                <path d="M12.2880001,8.60160009 L14.1312001,8.60160009 C14.3009988,8.60160009 14.4384001,8.46419874 14.4384001,8.29440008 L14.4384001,6.45120006 C14.4384001,6.28140141 14.3009988,6.14400006 14.1312001,6.14400006 L12.2880001,6.14400006 C12.1182015,6.14400006 11.9808001,6.28140141 11.9808001,6.45120006 L11.9808001,8.29440008 C11.9808001,8.46419874 12.1182015,8.60160009 12.2880001,8.60160009 Z M12.5952001,6.75840007 L13.8240001,6.75840007 L13.8240001,7.98720008 L12.5952001,7.98720008 L12.5952001,6.75840007 Z" id="Shape"></path>
                <path d="M3.99360004,9.52320009 L2.15040002,9.52320009 C1.98060136,9.52320009 1.84320002,9.66060144 1.84320002,9.8304001 L1.84320002,11.6736001 C1.84320002,11.8433988 1.98060136,11.9808001 2.15040002,11.9808001 L3.99360004,11.9808001 C4.1633987,11.9808001 4.30080004,11.8433988 4.30080004,11.6736001 L4.30080004,9.8304001 C4.30080004,9.66060144 4.1633987,9.52320009 3.99360004,9.52320009 Z M3.68640004,11.3664001 L2.45760002,11.3664001 L2.45760002,10.1376001 L3.68640004,10.1376001 L3.68640004,11.3664001 Z" id="Shape"></path>
                <path d="M7.37280007,9.52320009 L5.52960005,9.52320009 C5.3598014,9.52320009 5.22240005,9.66060144 5.22240005,9.8304001 L5.22240005,11.6736001 C5.22240005,11.8433988 5.3598014,11.9808001 5.52960005,11.9808001 L7.37280007,11.9808001 C7.54259873,11.9808001 7.68000008,11.8433988 7.68000008,11.6736001 L7.68000008,9.8304001 C7.68000008,9.66060144 7.54259873,9.52320009 7.37280007,9.52320009 Z M7.06560007,11.3664001 L5.83680006,11.3664001 L5.83680006,10.1376001 L7.06560007,10.1376001 L7.06560007,11.3664001 Z" id="Shape"></path>
                <path d="M10.7520001,9.52320009 L8.90880009,9.52320009 C8.73900143,9.52320009 8.60160009,9.66060144 8.60160009,9.8304001 L8.60160009,11.6736001 C8.60160009,11.8433988 8.73900143,11.9808001 8.90880009,11.9808001 L10.7520001,11.9808001 C10.9217988,11.9808001 11.0592001,11.8433988 11.0592001,11.6736001 L11.0592001,9.8304001 C11.0592001,9.66060144 10.9217988,9.52320009 10.7520001,9.52320009 Z M10.4448001,11.3664001 L9.21600009,11.3664001 L9.21600009,10.1376001 L10.4448001,10.1376001 L10.4448001,11.3664001 Z" id="Shape"></path>
                <path d="M3.99360004,12.9024001 L2.15040002,12.9024001 C1.98060136,12.9024001 1.84320002,13.0398015 1.84320002,13.2096001 L1.84320002,15.0528001 C1.84320002,15.2225988 1.98060136,15.3600002 2.15040002,15.3600002 L3.99360004,15.3600002 C4.1633987,15.3600002 4.30080004,15.2225988 4.30080004,15.0528001 L4.30080004,13.2096001 C4.30080004,13.0398015 4.1633987,12.9024001 3.99360004,12.9024001 Z M3.68640004,14.7456001 L2.45760002,14.7456001 L2.45760002,13.5168001 L3.68640004,13.5168001 L3.68640004,14.7456001 Z" id="Shape"></path>
                <path d="M7.37280007,12.9024001 L5.52960005,12.9024001 C5.3598014,12.9024001 5.22240005,13.0398015 5.22240005,13.2096001 L5.22240005,15.0528001 C5.22240005,15.2225988 5.3598014,15.3600002 5.52960005,15.3600002 L7.37280007,15.3600002 C7.54259873,15.3600002 7.68000008,15.2225988 7.68000008,15.0528001 L7.68000008,13.2096001 C7.68000008,13.0398015 7.54259873,12.9024001 7.37280007,12.9024001 Z M7.06560007,14.7456001 L5.83680006,14.7456001 L5.83680006,13.5168001 L7.06560007,13.5168001 L7.06560007,14.7456001 Z" id="Shape"></path>
                <path d="M10.7520001,12.9024001 L8.90880009,12.9024001 C8.73900143,12.9024001 8.60160009,13.0398015 8.60160009,13.2096001 L8.60160009,15.0528001 C8.60160009,15.2225988 8.73900143,15.3600002 8.90880009,15.3600002 L10.7520001,15.3600002 C10.9217988,15.3600002 11.0592001,15.2225988 11.0592001,15.0528001 L11.0592001,13.2096001 C11.0592001,13.0398015 10.9217988,12.9024001 10.7520001,12.9024001 Z M10.4448001,14.7456001 L9.21600009,14.7456001 L9.21600009,13.5168001 L10.4448001,13.5168001 L10.4448001,14.7456001 Z" id="Shape"></path>
            </g>
        </g>
    </g>
</svg>