<?xml version="1.0" encoding="UTF-8"?>
<svg width="17px" height="17px" viewBox="0 0 17 17" version="1.1" xmlns="http://www.w3.org/2000/svg" xmlns:xlink="http://www.w3.org/1999/xlink">
    <!-- Generator: Sketch 58 (84663) - https://sketch.com -->
    <title>clock</title>
    <desc>Created with Sketch.</desc>
    <g id="Page-1" stroke="none" stroke-width="1" fill="none" fill-rule="evenodd">
        <g id="Event-details--N-" transform="translate(-39.000000, -494.000000)" fill="#E41F7B" fill-rule="nonzero">
            <g id="clock" transform="translate(39.000000, 494.000000)">
                <path d="M8.19200098,0 C3.67501132,0 0,3.67501132 0,8.19200098 C0,12.7089906 3.67501132,16.384002 8.19200098,16.384002 C12.7089906,16.384002 16.384002,12.7089906 16.384002,8.19200098 C16.384002,3.67501132 12.7089906,0 8.19200098,0 Z M8.19200098,15.3599972 C4.23949642,15.3599972 1.02400474,12.1445055 1.02400474,8.19200098 C1.02400474,4.23949642 4.23949642,1.02400474 8.19200098,1.02400474 C12.1445055,1.02400474 15.3599972,4.23949642 15.3599972,8.19200098 C15.3599972,12.1445055 12.1445055,15.3599972 8.19200098,15.3599972 Z" id="Shape"></path>
                <polygon id="Path" points="8.70400335 3.07201423 7.67999861 3.07201423 7.67999861 8.40400167 10.9019952 11.6259983 11.6259983 10.9019952 8.70400335 7.98000028"></polygon>
            </g>
        </g>
    </g>
</svg>