<?xml version="1.0" encoding="UTF-8"?>
<svg width="18px" height="21px" viewBox="0 0 18 21" version="1.1" xmlns="http://www.w3.org/2000/svg" xmlns:xlink="http://www.w3.org/1999/xlink">
    <!-- Generator: Sketch 58 (84663) - https://sketch.com -->
    <title>bell</title>
    <desc>Created with Sketch.</desc>
    <g id="Page-1" stroke="none" stroke-width="1" fill="none" fill-rule="evenodd">
        <g id="Edit-Profile--N-" transform="translate(-253.000000, -757.000000)" fill="#FFF" fill-rule="nonzero">
            <g id="Group-10" transform="translate(0.000000, 735.000000)">
                <g id="Group-19" transform="translate(24.000000, 22.000000)">
                    <g id="Group-16" transform="translate(215.000000, 0.000000)">
                        <g id="bell" transform="translate(14.000000, 0.000000)">
                            <path d="M9.85319947,3.58142381 C9.61672268,3.58142381 9.42479949,3.38950062 9.42479949,3.15302383 L9.42479949,1.71359991 C9.42479949,1.24150313 9.04009631,0.856799954 8.56799954,0.856799954 C8.09590277,0.856799954 7.71119959,1.24150313 7.71119959,1.71359991 L7.71119959,3.15302383 C7.71119959,3.38950062 7.5192764,3.58142381 7.28279961,3.58142381 C7.04632282,3.58142381 6.85439963,3.39035742 6.85439963,3.15302383 L6.85439963,1.71359991 C6.85439963,0.768549559 7.62294919,0 8.56799954,0 C9.51304989,0 10.2815994,0.768549559 10.2815994,1.71359991 L10.2815994,3.15302383 C10.2815994,3.39035742 10.0896763,3.58142381 9.85319947,3.58142381 Z" id="Path"></path>
                            <path d="M8.56799954,20.5631989 C6.91437563,20.5631989 5.5691997,19.218023 5.5691997,17.5643991 C5.5691997,17.3279223 5.76112289,17.1359991 5.99759968,17.1359991 C6.23407647,17.1359991 6.42599966,17.3279223 6.42599966,17.5643991 C6.42599966,18.7450694 7.3873292,19.7063989 8.56799954,19.7063989 C9.74866988,19.7063989 10.7099994,18.7450694 10.7099994,17.5643991 C10.7099994,17.3279223 10.9019226,17.1359991 11.1383994,17.1359991 C11.3748762,17.1359991 11.5667994,17.3279223 11.5667994,17.5643991 C11.5667994,19.218023 10.2216235,20.5631989 8.56799954,20.5631989 Z" id="Path"></path>
                            <path d="M15.8507991,17.992799 L1.28519993,17.992799 C0.576626369,17.992799 0,17.4161727 0,16.7075991 C0,16.3314639 0.163648791,15.9758919 0.449819976,15.7308472 C1.8001367,14.5895896 2.57039986,12.9291113 2.57039986,11.1709578 L2.57039986,8.56799954 C2.57039986,5.26075172 5.26075172,2.57039986 8.56799954,2.57039986 C11.8752474,2.57039986 14.5655992,5.26075172 14.5655992,8.56799954 L14.5655992,11.1709578 C14.5655992,12.9299681 15.3358624,14.5895896 16.6793247,15.7248496 C16.9723503,15.9758919 17.1359991,16.3314639 17.1359991,16.7075991 C17.1359991,17.4161727 16.5602295,17.992799 15.8507991,17.992799 Z M8.56799954,3.42719982 C5.73284849,3.42719982 3.42719982,5.73284849 3.42719982,8.56799954 L3.42719982,11.1709578 C3.42719982,13.1827241 2.54640946,15.080536 1.01016715,16.3794447 C0.911635151,16.4634111 0.856799954,16.5825063 0.856799954,16.7075991 C0.856799954,16.9440759 1.04872314,17.1359991 1.28519993,17.1359991 L15.8507991,17.1359991 C16.0872759,17.1359991 16.2791991,16.9440759 16.2791991,16.7075991 C16.2791991,16.5825063 16.2243639,16.4634111 16.1292591,16.3820151 C14.5904464,15.080536 13.7087993,13.1818673 13.7087993,11.1709578 L13.7087993,8.56799954 C13.7087993,5.73284849 11.4031506,3.42719982 8.56799954,3.42719982 Z" id="Shape"></path>
                        </g>
                    </g>
                </g>
            </g>
        </g>
    </g>
</svg>