<?xml version="1.0" encoding="UTF-8"?>
<svg width="16px" height="15px" viewBox="0 0 16 15" version="1.1" xmlns="http://www.w3.org/2000/svg" xmlns:xlink="http://www.w3.org/1999/xlink">
    <!-- Generator: Sketch 58 (84663) - https://sketch.com -->
    <title>right-arrow</title>
    <desc>Created with Sketch.</desc>
    <g id="Page-1" stroke="none" stroke-width="1" fill="none" fill-rule="evenodd">
        <g id="Event-details--N-" transform="translate(-38.000000, -545.000000)" fill="#E41F7B" fill-rule="nonzero">
            <g id="right-arrow" transform="translate(48.500000, 549.500000) rotate(-36.000000) translate(-48.500000, -549.500000) translate(41.000000, 542.000000)">
                <path d="M14.0536337,6.7100808 L0.741632088,0.0540800064 C0.536832064,-0.0472960056 0.291072035,-0.00224000027 0.134400016,0.16569602 C-0.0192000023,0.33465604 -0.0437760052,0.58553607 0.0760320091,0.780096093 L4.00716848,7.16780885 L0.0760000091,13.5555216 C-0.0438080052,13.7500816 -0.0202560024,14.0009617 0.134368016,14.1699217 C0.234720028,14.2784657 0.371936044,14.3358097 0.512224061,14.3358097 C0.59004807,14.3358097 0.66787208,14.3184017 0.741600088,14.2815377 L14.0536017,7.62553691 C14.2266577,7.5384969 14.3362257,7.36134488 14.3362257,7.16780885 C14.3362257,6.97427283 14.2266577,6.79712081 14.0536337,6.7100808 Z M1.88950423,12.5632655 L5.0444486,7.43609689 C5.14582461,7.27123287 5.14582461,7.06336084 5.0444486,6.89952082 L1.88950423,1.77235221 L12.6793935,7.16780885 L1.88950423,12.5632655 Z" id="Shape"></path>
            </g>
        </g>
    </g>
</svg>