<?xml version="1.0" encoding="UTF-8"?>
<svg width="25px" height="24px" viewBox="0 0 25 24" version="1.1" xmlns="http://www.w3.org/2000/svg" xmlns:xlink="http://www.w3.org/1999/xlink">
    <!-- Generator: Sketch 58 (84663) - https://sketch.com -->
    <title>edit (2)</title>
    <desc>Created with Sketch.</desc>
    <g id="Page-1" stroke="none" stroke-width="1" fill="none" fill-rule="evenodd">
        <g id="Profile--N-" transform="translate(-316.000000, -139.000000)" fill="#E41F7B" fill-rule="nonzero">
            <g id="edit-(2)" transform="translate(316.000000, 139.000000)">
                <path d="M22.2064332,15.0387487 C21.8754585,15.0387487 21.6072146,15.3069927 21.6072146,15.6379673 L21.6072146,20.9583732 C21.6060442,21.950829 20.8020146,22.7550928 19.8095588,22.7560291 L2.99609307,22.7560291 C2.00363724,22.7550928 1.19960756,21.950829 1.19843723,20.9583732 L1.19843723,5.34334473 C1.19960756,4.35112295 2.00363724,3.54685922 2.99609307,3.54568889 L8.31649892,3.54568889 C8.64747361,3.54568889 8.91571754,3.2774449 8.91571754,2.94647027 C8.91571754,2.6157297 8.64747361,2.34725166 8.31649892,2.34725166 L2.99609307,2.34725166 C1.3421561,2.34912422 0.00187255817,3.6894077 0,5.34334473 L0,20.9586073 C0.00187255817,22.6125443 1.3421561,23.9528278 2.99609307,23.9547003 L19.8095588,23.9547003 C21.4634958,23.9528278 22.8037793,22.6125443 22.8056518,20.9586073 L22.8056518,15.6379673 C22.8056518,15.3069927 22.5374079,15.0387487 22.2064332,15.0387487 Z" id="Path"></path>
                <path d="M22.5683051,0.805434066 C21.5152252,-0.247645787 19.8079203,-0.247645787 18.7548404,0.805434066 L8.0644058,11.4958686 C7.99114197,11.5691325 7.93824217,11.6599516 7.91062197,11.7596653 L6.50479896,16.8350001 C6.44698371,17.0430881 6.50573518,17.2659226 6.65834873,17.4187701 C6.81119627,17.5713836 7.03403069,17.6301351 7.24211871,17.5725539 L12.3174536,16.1664969 C12.4171673,16.1388766 12.5079863,16.0859769 12.5812502,16.012713 L23.2714507,5.32204436 C24.3228921,4.26826228 24.3228921,2.56236179 23.2714507,1.50857966 L22.5683051,0.805434066 Z M9.37004701,11.8853607 L18.1193409,3.1358327 L20.941052,5.9575438 L12.191524,14.7070718 L9.37004701,11.8853607 Z M8.806407,13.0163859 L11.060733,15.2709459 L7.94245546,16.1348974 L8.806407,13.0163859 Z M22.4241181,4.47471179 L21.7886187,5.11021123 L18.9666736,2.28826608 L19.602407,1.65276664 C20.1873474,1.06782626 21.1357981,1.06782626 21.7207384,1.65276664 L22.4241181,2.35591223 C23.0081222,2.94155482 23.0081222,3.88930331 22.4241181,4.47471179 L22.4241181,4.47471179 Z" id="Shape"></path>
            </g>
        </g>
    </g>
</svg>