<?xml version="1.0" encoding="UTF-8"?>
<svg width="22px" height="22px" viewBox="0 0 22 22" version="1.1" xmlns="http://www.w3.org/2000/svg" xmlns:xlink="http://www.w3.org/1999/xlink">
    <!-- Generator: Sketch 58 (84663) - https://sketch.com -->
    <title>event</title>
    <desc>Created with Sketch.</desc>
    <g id="Page-1" stroke="none" stroke-width="1" fill="none" fill-rule="evenodd">
        <g id="Edit-Profile--N-" transform="translate(-169.000000, -757.000000)" fill="#BEBEBE" fill-rule="nonzero">
            <g id="Group-10" transform="translate(0.000000, 735.000000)">
                <g id="Group-19" transform="translate(24.000000, 22.000000)">
                    <g id="Group-15" transform="translate(143.000000, 0.000000)">
                        <g id="event" transform="translate(2.000000, 0.000000)">
                            <path d="M19.940799,1.45023993 L17.7654391,1.45023993 L17.7654391,1.08767994 C17.7654391,0.486970899 17.2784682,0 16.6777592,0 C16.0770501,0 15.5900792,0.486970899 15.5900792,1.08767994 L15.5900792,1.45023993 L11.9644794,1.45023993 L11.9644794,1.08767994 C11.9644794,0.486970899 11.4775085,0 10.8767994,0 C10.2760904,0 9.7891195,0.486970899 9.7891195,1.08767994 L9.7891195,1.45023993 L6.16351969,1.45023993 L6.16351969,1.08767994 C6.16351969,0.486970899 5.67654879,0 5.07583974,0 C4.4751307,0 3.9881598,0.486970899 3.9881598,1.08767994 L3.9881598,1.45023993 L1.81279991,1.45023993 C0.812084073,1.45136384 0.00112390978,2.262324 0,3.26303983 L0,19.940799 C0.00112390978,20.9415148 0.812084073,21.752475 1.81279991,21.7535989 L19.940799,21.7535989 C20.9415148,21.752475 21.752475,20.9415148 21.7535989,19.940799 L21.7535989,3.26303983 C21.752475,2.262324 20.9415148,1.45136384 19.940799,1.45023993 L19.940799,1.45023993 Z M16.3151992,1.08767994 C16.3151992,0.887443596 16.4775228,0.725119963 16.6777592,0.725119963 C16.8779955,0.725119963 17.0403191,0.887443596 17.0403191,1.08767994 L17.0403191,3.26303983 C17.0403191,3.46327618 16.8779955,3.62559982 16.6777592,3.62559982 C16.4775228,3.62559982 16.3151992,3.46327618 16.3151992,3.26303983 L16.3151992,1.08767994 Z M10.5142395,1.08767994 C10.5142395,0.887443596 10.6765631,0.725119963 10.8767994,0.725119963 C11.0770358,0.725119963 11.2393594,0.887443596 11.2393594,1.08767994 L11.2393594,3.26303983 C11.2393594,3.46327618 11.0770358,3.62559982 10.8767994,3.62559982 C10.6765631,3.62559982 10.5142395,3.46327618 10.5142395,3.26303983 L10.5142395,1.08767994 Z M4.71327976,1.08767994 C4.71327976,0.887443596 4.87560339,0.725119963 5.07583974,0.725119963 C5.27607609,0.725119963 5.43839972,0.887443596 5.43839972,1.08767994 L5.43839972,3.26303983 C5.43839972,3.46327618 5.27607609,3.62559982 5.07583974,3.62559982 C4.87560339,3.62559982 4.71327976,3.46327618 4.71327976,3.26303983 L4.71327976,1.08767994 Z M1.81279991,2.17535989 L3.9881598,2.17535989 L3.9881598,3.26303983 C3.9881598,3.86374888 4.4751307,4.35071978 5.07583974,4.35071978 C5.67654879,4.35071978 6.16351969,3.86374888 6.16351969,3.26303983 L6.16351969,2.17535989 L9.7891195,2.17535989 L9.7891195,3.26303983 C9.7891195,3.86374888 10.2760904,4.35071978 10.8767994,4.35071978 C11.4775085,4.35071978 11.9644794,3.86374888 11.9644794,3.26303983 L11.9644794,2.17535989 L15.5900792,2.17535989 L15.5900792,3.26303983 C15.5900792,3.86374888 16.0770501,4.35071978 16.6777592,4.35071978 C17.2784682,4.35071978 17.7654391,3.86374888 17.7654391,3.26303983 L17.7654391,2.17535989 L19.940799,2.17535989 C20.5412181,2.17605916 21.0277797,2.66262067 21.0284789,3.26303983 L21.0284789,5.80095971 L0.725119963,5.80095971 L0.725119963,3.26303983 C0.725819229,2.66262067 1.21238075,2.17605916 1.81279991,2.17535989 Z M19.940799,21.0284789 L1.81279991,21.0284789 C1.21238075,21.0277797 0.725819229,20.5412181 0.725119963,19.940799 L0.725119963,6.52607967 L21.0284789,6.52607967 L21.0284789,19.940799 C21.0277797,20.5412181 20.5412181,21.0277797 19.940799,21.0284789 L19.940799,21.0284789 Z" id="Shape"></path>
                            <path d="M19.215679,9.06399954 L17.7654391,9.06399954 C17.5652027,9.06399954 17.4028791,9.22632317 17.4028791,9.42655952 L17.4028791,10.8767994 C17.4028791,11.0770358 17.5652027,11.2393594 17.7654391,11.2393594 L19.215679,11.2393594 C19.4159154,11.2393594 19.578239,11.0770358 19.578239,10.8767994 L19.578239,9.42655952 C19.578239,9.22632317 19.4159154,9.06399954 19.215679,9.06399954 Z M18.853119,10.5142395 L18.1279991,10.5142395 L18.1279991,9.7891195 L18.853119,9.7891195 L18.853119,10.5142395 Z" id="Shape"></path>
                            <path d="M11.9644794,16.3151992 L10.5142395,16.3151992 C10.3140031,16.3151992 10.1516795,16.4775228 10.1516795,16.6777592 L10.1516795,18.1279991 C10.1516795,18.3282354 10.3140031,18.4905591 10.5142395,18.4905591 L11.9644794,18.4905591 C12.1647157,18.4905591 12.3270394,18.3282354 12.3270394,18.1279991 L12.3270394,16.6777592 C12.3270394,16.4775228 12.1647157,16.3151992 11.9644794,16.3151992 Z M11.6019194,17.7654391 L10.8767994,17.7654391 L10.8767994,17.0403191 L11.6019194,17.0403191 L11.6019194,17.7654391 Z" id="Shape"></path>
                            <path d="M8.33887958,9.06399954 L6.88863965,9.06399954 C6.6884033,9.06399954 6.52607967,9.22632317 6.52607967,9.42655952 L6.52607967,10.8767994 C6.52607967,11.0770358 6.6884033,11.2393594 6.88863965,11.2393594 L8.33887958,11.2393594 C8.53911593,11.2393594 8.70143956,11.0770358 8.70143956,10.8767994 L8.70143956,9.42655952 C8.70143956,9.22632317 8.53911593,9.06399954 8.33887958,9.06399954 Z M7.97631959,10.5142395 L7.25119963,10.5142395 L7.25119963,9.7891195 L7.97631959,9.7891195 L7.97631959,10.5142395 Z" id="Shape"></path>
                            <path d="M4.71327976,12.6895994 L3.26303983,12.6895994 C3.06280349,12.6895994 2.90047985,12.851923 2.90047985,13.0521593 L2.90047985,14.5023993 C2.90047985,14.7026356 3.06280349,14.8649592 3.26303983,14.8649592 L4.71327976,14.8649592 C4.91351611,14.8649592 5.07583974,14.7026356 5.07583974,14.5023993 L5.07583974,13.0521593 C5.07583974,12.851923 4.91351611,12.6895994 4.71327976,12.6895994 Z M4.35071978,14.1398393 L3.62559982,14.1398393 L3.62559982,13.4147193 L4.35071978,13.4147193 L4.35071978,14.1398393 Z" id="Shape"></path>
                            <path d="M8.33887958,12.6895994 L6.88863965,12.6895994 C6.6884033,12.6895994 6.52607967,12.851923 6.52607967,13.0521593 L6.52607967,14.5023993 C6.52607967,14.7026356 6.6884033,14.8649592 6.88863965,14.8649592 L8.33887958,14.8649592 C8.53911593,14.8649592 8.70143956,14.7026356 8.70143956,14.5023993 L8.70143956,13.0521593 C8.70143956,12.851923 8.53911593,12.6895994 8.33887958,12.6895994 Z M7.97631959,14.1398393 L7.25119963,14.1398393 L7.25119963,13.4147193 L7.97631959,13.4147193 L7.97631959,14.1398393 Z" id="Shape"></path>
                            <path d="M4.71327976,16.3151992 L3.26303983,16.3151992 C3.06280349,16.3151992 2.90047985,16.4775228 2.90047985,16.6777592 L2.90047985,18.1279991 C2.90047985,18.3282354 3.06280349,18.4905591 3.26303983,18.4905591 L4.71327976,18.4905591 C4.91351611,18.4905591 5.07583974,18.3282354 5.07583974,18.1279991 L5.07583974,16.6777592 C5.07583974,16.4775228 4.91351611,16.3151992 4.71327976,16.3151992 Z M4.35071978,17.7654391 L3.62559982,17.7654391 L3.62559982,17.0403191 L4.35071978,17.0403191 L4.35071978,17.7654391 Z" id="Shape"></path>
                            <path d="M8.33887958,16.3151992 L6.88863965,16.3151992 C6.6884033,16.3151992 6.52607967,16.4775228 6.52607967,16.6777592 L6.52607967,18.1279991 C6.52607967,18.3282354 6.6884033,18.4905591 6.88863965,18.4905591 L8.33887958,18.4905591 C8.53911593,18.4905591 8.70143956,18.3282354 8.70143956,18.1279991 L8.70143956,16.6777592 C8.70143956,16.4775228 8.53911593,16.3151992 8.33887958,16.3151992 Z M7.97631959,17.7654391 L7.25119963,17.7654391 L7.25119963,17.0403191 L7.97631959,17.0403191 L7.97631959,17.7654391 Z" id="Shape"></path>
                            <path d="M16.0073857,10.558789 L14.1945858,10.2817932 L13.3803668,8.54735157 C13.3206394,8.42009616 13.1927342,8.33883582 13.0521593,8.33883582 C12.9115845,8.33883582 12.7836793,8.42009616 12.7239519,8.54735157 L11.9100954,10.2817932 L10.0972955,10.558789 C9.96286813,10.5792509 9.85119138,10.6732102 9.80803737,10.8021564 C9.76488336,10.9311027 9.79750803,11.0733548 9.89253974,11.170609 L11.2150226,12.5259942 L10.9023146,14.4442084 C10.8802423,14.5810255 10.9380945,14.7184562 11.0513704,14.7982977 C11.1646462,14.8781393 11.313527,14.8864224 11.4349605,14.8196392 L13.0521593,13.9257476 L14.6693581,14.8196392 C14.7908676,14.8868072 14.9400646,14.8786862 15.0535656,14.7987261 C15.1670666,14.7187661 15.2249377,14.5810103 15.2025932,14.4439818 L14.8898852,12.5257676 L16.2123681,11.1703824 C16.3073998,11.0731282 16.3400245,10.9308761 16.2968705,10.8019298 C16.2537165,10.6729836 16.1420397,10.5790243 16.0076123,10.5585624 L16.0073857,10.558789 Z M14.242897,12.1502914 C14.1625244,12.2326559 14.1260273,12.3482861 14.1445526,12.4618664 L14.3666206,13.8237776 L13.2274571,13.1938296 C13.1183128,13.1335027 12.9858246,13.1335027 12.8766803,13.1938296 L11.7375168,13.8237776 L11.9595848,12.4618664 C11.9781101,12.3482861 11.941613,12.2326559 11.8612404,12.1502914 L10.9039914,11.1690228 L12.2107029,10.9696148 C12.3302115,10.9513449 12.4327505,10.8747083 12.4841185,10.7652669 L13.0521593,9.55472447 L13.6202455,10.7650403 C13.6716135,10.8744817 13.7741525,10.9511183 13.8936611,10.9693882 L15.2003725,11.1687962 L14.242897,12.1502914 Z" id="Shape"></path>
                            <path d="M19.215679,12.6895994 L17.7654391,12.6895994 C17.5652027,12.6895994 17.4028791,12.851923 17.4028791,13.0521593 L17.4028791,14.5023993 C17.4028791,14.7026356 17.5652027,14.8649592 17.7654391,14.8649592 L19.215679,14.8649592 C19.4159154,14.8649592 19.578239,14.7026356 19.578239,14.5023993 L19.578239,13.0521593 C19.578239,12.851923 19.4159154,12.6895994 19.215679,12.6895994 Z M18.853119,14.1398393 L18.1279991,14.1398393 L18.1279991,13.4147193 L18.853119,13.4147193 L18.853119,14.1398393 Z" id="Shape"></path>
                            <path d="M19.215679,16.3151992 L17.7654391,16.3151992 C17.5652027,16.3151992 17.4028791,16.4775228 17.4028791,16.6777592 L17.4028791,18.1279991 C17.4028791,18.3282354 17.5652027,18.4905591 17.7654391,18.4905591 L19.215679,18.4905591 C19.4159154,18.4905591 19.578239,18.3282354 19.578239,18.1279991 L19.578239,16.6777592 C19.578239,16.4775228 19.4159154,16.3151992 19.215679,16.3151992 Z M18.853119,17.7654391 L18.1279991,17.7654391 L18.1279991,17.0403191 L18.853119,17.0403191 L18.853119,17.7654391 Z" id="Shape"></path>
                            <path d="M15.5900792,16.3151992 L14.1398393,16.3151992 C13.9396029,16.3151992 13.7772793,16.4775228 13.7772793,16.6777592 L13.7772793,18.1279991 C13.7772793,18.3282354 13.9396029,18.4905591 14.1398393,18.4905591 L15.5900792,18.4905591 C15.7903156,18.4905591 15.9526392,18.3282354 15.9526392,18.1279991 L15.9526392,16.6777592 C15.9526392,16.4775228 15.7903156,16.3151992 15.5900792,16.3151992 Z M15.2275192,17.7654391 L14.5023993,17.7654391 L14.5023993,17.0403191 L15.2275192,17.0403191 L15.2275192,17.7654391 Z" id="Shape"></path>
                        </g>
                    </g>
                </g>
            </g>
        </g>
    </g>
</svg>