<?xml version="1.0" encoding="UTF-8"?>
<svg width="18px" height="16px" viewBox="0 0 18 16" version="1.1" xmlns="http://www.w3.org/2000/svg" xmlns:xlink="http://www.w3.org/1999/xlink">
    <!-- Generator: Sketch 58 (84663) - https://sketch.com -->
    <title>heart (1)</title>
    <desc>Created with Sketch.</desc>
    <g id="Page-1" stroke="none" stroke-width="1" fill="none" fill-rule="evenodd">
        <g id="Favorite--N----events" transform="translate(-326.000000, -319.000000)" fill="#E41F7B" fill-rule="nonzero">
            <g id="heart-(1)" transform="translate(326.000000, 319.000000)">
                <path d="M12.9249992,0 C11.9699587,0 11.0943587,0.296063699 10.3225713,0.879985788 C9.58264943,1.43979637 9.09002133,2.15281757 8.79999948,2.67129896 C8.50997762,2.15278394 8.01734952,1.43979637 7.27742769,0.879985788 C6.50564024,0.296063699 5.63004029,0 4.67499972,0 C2.00983738,0 0,2.13260695 0,4.96064749 C0,8.01591457 2.50741548,10.1062844 6.303309,13.2708098 C6.94790896,13.808224 7.67854954,14.4173673 8.437962,15.0670327 C8.53806199,15.1527849 8.66662448,15.1999991 8.79999948,15.1999991 C8.93337447,15.1999991 9.06193696,15.1527849 9.16203695,15.0670664 C9.92151816,14.4173 10.6521244,13.8081903 11.2971025,13.2704735 C15.0925835,10.1062844 17.599999,8.01591457 17.599999,4.96064749 C17.599999,2.13260695 15.5901616,0 12.9249992,0 Z" id="Path"></path>
            </g>
        </g>
    </g>
</svg>