<?xml version="1.0" encoding="UTF-8"?>
<svg width="21px" height="21px" viewBox="0 0 21 21" version="1.1" xmlns="http://www.w3.org/2000/svg" xmlns:xlink="http://www.w3.org/1999/xlink">
    <!-- Generator: Sketch 58 (84663) - https://sketch.com -->
    <title>sex</title>
    <desc>Created with Sketch.</desc>
    <g id="Page-1" stroke="none" stroke-width="1" fill="none" fill-rule="evenodd">
        <g id="Profile--N-" transform="translate(-27.000000, -383.000000)" fill="#848484" fill-rule="nonzero">
            <g id="Group-Copy-2" transform="translate(23.000000, 383.000000)">
                <g id="sex" transform="translate(4.000000, 0.000000)">
                    <path d="M10.9754996,5.50799979 C10.9754996,2.47086441 8.52277918,0 5.50799979,0 C2.48503941,0 0,2.48584941 0,5.50799979 C0,8.31898318 2.14820092,10.6409291 4.90049981,10.9420871 L4.90049981,14.6204994 L3.07799988,14.6204994 C2.7424979,14.6204994 2.47049991,14.8924974 2.47049991,15.2279994 C2.47049991,15.5635014 2.7424979,15.8354994 3.07799988,15.8354994 L4.90049981,15.8354994 L4.90049981,17.6579993 C4.90049981,17.9935013 5.1724978,18.2654993 5.50799979,18.2654993 C5.84350178,18.2654993 6.11549977,17.9935013 6.11549977,17.6579993 L6.11549977,15.8354994 L7.9379997,15.8354994 C8.27350168,15.8354994 8.54549967,15.5635014 8.54549967,15.2279994 C8.54549967,14.8924974 8.27350168,14.6204994 7.9379997,14.6204994 L6.11549977,14.6204994 L6.11549977,10.9415606 C8.84544266,10.6383776 10.9754996,8.31744418 10.9754996,5.50799979 Z M1.21499995,5.50799979 C1.21499995,3.14081538 3.14085588,1.21499995 5.50799979,1.21499995 C7.8528282,1.21499995 9.76049963,3.14081538 9.76049963,5.50799979 C9.76049963,7.8528282 7.8528282,9.76049963 5.50799979,9.76049963 C3.14085588,9.76049963 1.21499995,7.8528282 1.21499995,5.50799979 Z" id="Shape"></path>
                    <path d="M15.8354994,9.79391213 L15.8354994,4.54462633 L17.2284563,5.93754277 C17.4656648,6.17479176 17.8503338,6.17483226 18.0875828,5.93754277 C18.3248318,5.70029378 18.3248318,5.3156653 18.0875828,5.07841631 L15.6575829,2.6484164 C15.4203744,2.41116741 15.0357054,2.41116741 14.7984564,2.6484164 L12.3684565,5.07841631 C12.1312075,5.3156653 12.1312075,5.70029378 12.3684565,5.93754277 C12.605665,6.17479176 12.990334,6.17479176 13.227583,5.93754277 L14.6204994,4.54462633 L14.6204994,9.79443863 C11.8905565,10.0976216 9.76049963,12.418555 9.76049963,15.2279994 C9.76049963,18.2651348 12.21322,20.7359992 15.2279994,20.7359992 C18.2509598,20.7359992 20.7359992,18.2501498 20.7359992,15.2279994 C20.7359992,12.417016 18.5877983,10.0950701 15.8354994,9.79391213 Z M15.2279994,19.5209993 C12.883171,19.5209993 10.9754996,17.5951838 10.9754996,15.2279994 C10.9754996,12.883171 12.883171,10.9754996 15.2279994,10.9754996 C17.5951433,10.9754996 19.5209993,12.883171 19.5209993,15.2279994 C19.5209993,17.5951838 17.5951433,19.5209993 15.2279994,19.5209993 Z" id="Shape"></path>
                </g>
            </g>
        </g>
    </g>
</svg>