<?xml version="1.0" encoding="UTF-8"?>
<svg width="24px" height="21px" viewBox="0 0 24 21" version="1.1" xmlns="http://www.w3.org/2000/svg" xmlns:xlink="http://www.w3.org/1999/xlink">
    <!-- Generator: Sketch 58 (84663) - https://sketch.com -->
    <title>heart (1)</title>
    <desc>Created with Sketch.</desc>
    <g id="Page-1" stroke="none" stroke-width="1" fill="none" fill-rule="evenodd">
        <g id="Event-details--N-" transform="translate(-323.000000, -272.000000)" fill-rule="nonzero" stroke="#E41F7B" stroke-width="0.699999988">
            <g id="heart-(1)" transform="translate(324.000000, 273.000000)">
                <path d="M16.15625,0 C14.9624492,0 13.8679492,0.370079646 12.9032148,1.0999823 C11.9783125,1.79974558 11.3625273,2.69102212 11,3.33912389 C10.6374727,2.69098009 10.0216875,1.79974558 9.09678516,1.0999823 C8.13205078,0.370079646 7.03755078,0 5.84375,0 C2.51229688,0 0,2.66575885 0,6.20080973 C0,10.0198938 3.13426953,12.6328562 7.87913672,16.5885133 C8.68488672,17.260281 9.5981875,18.0217102 10.5474531,18.833792 C10.6725781,18.9409823 10.8332813,19 11,19 C11.1667187,19 11.3274219,18.9409823 11.4525469,18.8338341 C12.4018984,18.0216261 13.3151562,17.2602389 14.1213789,16.5880929 C18.8657305,12.6328562 22,10.0198938 22,6.20080973 C22,2.66575885 19.4877031,0 16.15625,0 Z" id="Path"></path>
            </g>
        </g>
    </g>
</svg>