<?xml version="1.0" encoding="UTF-8"?>
<svg width="21px" height="20px" viewBox="0 0 21 20" version="1.1" xmlns="http://www.w3.org/2000/svg" xmlns:xlink="http://www.w3.org/1999/xlink">
    <!-- Generator: Sketch 58 (84663) - https://sketch.com -->
    <title>browser</title>
    <desc>Created with Sketch.</desc>
    <g id="Page-1" stroke="none" stroke-width="1" fill="none" fill-rule="evenodd">
        <g id="Edit-Profile--N-" transform="translate(-25.000000, -758.000000)" fill="#BEBEBE" fill-rule="nonzero">
            <g id="Group-10" transform="translate(0.000000, 735.000000)">
                <g id="Group-19" transform="translate(24.000000, 22.000000)">
                    <g id="Group-13" transform="translate(0.000000, 1.000000)">
                        <g id="Group-18">
                            <g id="browser" transform="translate(1.000000, 0.000000)">
                                <path d="M17.0045581,19.1593869 L3.43284507,19.1593869 C2.42039528,19.1593869 1.59667213,18.3357037 1.59667213,17.323214 L1.59667213,7.66254928 C1.59667213,7.30984441 1.88259619,7.02388043 2.23534098,7.02388043 C2.58808577,7.02388043 2.87400983,7.30984441 2.87400983,7.66254928 L2.87400983,17.323214 C2.87400983,17.6313717 3.12468735,17.8820492 3.43284507,17.8820492 L17.0045581,17.8820492 C17.3127159,17.8820492 17.5633934,17.6313717 17.5633934,17.323214 L17.5633934,7.66254928 C17.5633934,7.30984441 17.8493175,7.02388043 18.2020622,7.02388043 C18.554807,7.02388043 18.8407311,7.30984441 18.8407311,7.66254928 L18.8407311,17.323214 C18.8407311,18.3356638 18.0170479,19.1593869 17.0045581,19.1593869 Z" id="Path"></path>
                                <path d="M19.7987344,9.89772062 C19.6352751,9.89772062 19.4718557,9.83534063 19.3471556,9.71060062 L11.4041508,1.76767571 C10.7505132,1.11399814 9.68692996,1.11399814 9.03325239,1.76767571 L1.09028756,9.71064054 C0.840887375,9.96008064 0.436490243,9.96008064 0.187090056,9.71064054 C-0.0623500465,9.46124035 -0.0623500465,9.05684322 0.187090056,8.80744303 L8.13005488,0.864438289 C9.28173449,-0.287241316 11.1557086,-0.287241316 12.3073483,0.864438289 L20.2503132,8.80740312 C20.4997533,9.05684322 20.4997533,9.46120044 20.2503132,9.71060062 C20.125653,9.83534063 19.9621937,9.89772062 19.7987344,9.89772062 L19.7987344,9.89772062 Z" id="Path"></path>
                                <path d="M12.773377,19.1593869 L7.66402621,19.1593869 C7.31128142,19.1593869 7.02535736,18.873423 7.02535736,18.5207181 L7.02535736,12.852532 C7.02535736,11.7520258 7.92069125,10.8566919 9.02119751,10.8566919 L11.4162057,10.8566919 C12.516712,10.8566919 13.4120459,11.7520258 13.4120459,12.852532 L13.4120459,18.5207181 C13.4120459,18.873423 13.1261218,19.1593869 12.773377,19.1593869 Z M8.30269506,17.8820492 L12.1347082,17.8820492 L12.1347082,12.852532 C12.1347082,12.4563578 11.81238,12.1340296 11.4162057,12.1340296 L9.02119751,12.1340296 C8.62502324,12.1340296 8.30269506,12.4563578 8.30269506,12.852532 L8.30269506,17.8820492 Z" id="Shape"></path>
                            </g>
                        </g>
                    </g>
                </g>
            </g>
        </g>
    </g>
</svg>