<?xml version="1.0" encoding="UTF-8"?>
<svg width="16px" height="18px" viewBox="0 0 16 18" version="1.1" xmlns="http://www.w3.org/2000/svg" xmlns:xlink="http://www.w3.org/1999/xlink">
    <!-- Generator: Sketch 58 (84663) - https://sketch.com -->
    <title>location (4)</title>
    <desc>Created with Sketch.</desc>
    <g id="Page-1" stroke="none" stroke-width="1" fill="none" fill-rule="evenodd">
        <g id="Profile--N-V2" transform="translate(-35.000000, -43.000000)" fill="#E41F7B" fill-rule="nonzero">
            <g id="Group-32" transform="translate(0.000000, -59.000000)">
                <g id="Group-11" transform="translate(28.000000, 96.000000)">
                    <g id="location-(4)" transform="translate(7.000000, 6.000000)">
                        <path d="M10.4296239,11.8484846 C10.4645511,11.7916334 10.4994783,11.7358406 10.5344055,11.677931 C12.1052221,9.0772912 12.8956957,6.8023362 12.8843557,4.91702357 C12.8698334,2.21676975 10.6769947,0.0353232198 7.9767019,0.0348656614 C5.27640907,0.0344082469 3.0828314,2.21511163 3.06739413,4.91536037 C3.05590293,6.8023362 3.84652766,9.0775936 5.41734432,11.677931 C5.45227152,11.7358406 5.48719872,11.7916334 5.52212591,11.8484846 C2.2150798,12.2571781 0.022679998,13.4391084 0.022679998,14.8423955 C0.022679998,16.6041777 3.51539969,17.98418 7.9757993,17.98418 C12.4361989,17.98418 15.9289186,16.6041777 15.9289186,14.8423955 C15.9289186,13.4391084 13.7365188,12.2571781 10.4296239,11.8484846 Z M3.59659408,4.91702357 C3.58766789,3.34632828 4.42060718,1.89114266 5.77950075,1.10337899 C7.13839432,0.31561532 8.81510328,0.315933717 10.1736976,1.10421342 C11.5322919,1.89249313 12.3646784,3.34799499 12.3551557,4.91868677 C12.3778357,8.67721603 8.86394802,13.3128564 7.9757993,14.4244787 C7.08765057,13.3128564 3.57361168,8.67706483 3.59659408,4.91702357 L3.59659408,4.91702357 Z M7.9757993,17.4549801 C3.53490449,17.4549801 0.551879951,16.1040082 0.551879951,14.8423955 C0.551879951,13.7235156 2.76378456,12.6825037 5.83390029,12.3448741 C6.42767615,13.2719863 7.07558286,14.1632935 7.77424971,15.0141587 C7.82446683,15.0733574 7.89817042,15.1074856 7.9757993,15.1074856 C8.05342818,15.1074856 8.12713176,15.0733574 8.17734888,15.0141587 C8.87606747,14.1632976 9.52402473,13.2719903 10.1178495,12.3448741 C13.1872092,12.6825037 15.3998698,13.7229108 15.3998698,14.8423955 C15.3997186,16.1040082 12.4166941,17.4549801 7.9757993,17.4549801 L7.9757993,17.4549801 Z" id="Shape"></path>
                        <path d="M5.81242989,15.922417 C4.63821079,15.7721242 3.69563007,15.5075242 3.15917252,15.1777571 C3.0785944,15.1262457 2.97649097,15.1222243 2.89211112,15.1672387 C2.80773126,15.212253 2.75420859,15.2992967 2.75211738,15.3949099 C2.75002617,15.4905231 2.79969191,15.5798236 2.88202295,15.6284842 C3.48122849,15.9968074 4.4981996,16.2877162 5.74529709,16.4472321 C5.75652774,16.448683 5.76784199,16.4493902 5.77916589,16.4493507 C5.91833179,16.4486745 6.03318997,16.3403135 6.04195784,16.2014225 C6.05072571,16.0625314 5.95040619,15.9405868 5.81242989,15.922417 L5.81242989,15.922417 Z" id="Path"></path>
                        <path d="M8.42017606,16.0488202 C8.05139929,16.0572874 7.66735132,16.0553218 7.29252656,16.0415626 C7.19799409,16.0380784 7.10878368,16.0852913 7.05850004,16.1654167 C7.0082164,16.2455422 7.00449881,16.3464071 7.04874764,16.4300167 C7.09299648,16.5136263 7.17848929,16.5672783 7.27302176,16.5707625 C7.50556734,16.5792297 7.74174172,16.5836145 7.9757993,16.5836145 C8.12972088,16.5836145 8.28197927,16.5818001 8.43257446,16.5781713 C8.57866609,16.5747868 8.69435457,16.4536151 8.69097523,16.3075234 C8.69024486,16.2370209 8.66108407,16.1697988 8.61010301,16.1210949 C8.55912194,16.0723911 8.49063835,16.0463303 8.42017606,16.0488202 L8.42017606,16.0488202 Z" id="Path"></path>
                        <path d="M10.2100815,4.91702357 C10.2099145,3.68299977 9.20941992,2.68275341 7.97539612,2.68289258 C6.74137232,2.68303175 5.74110339,3.68350376 5.74121472,4.91752756 C5.74132606,6.15155136 6.74177549,7.15184286 7.9757993,7.15175937 C9.20931445,7.15025927 10.2088318,6.150539 10.2100815,4.91702357 L10.2100815,4.91702357 Z M6.27056585,4.91702357 C6.27073285,3.97528852 7.03426581,3.2119812 7.97600086,3.21209253 C8.91773591,3.21220386 9.68108837,3.97569169 9.68103272,4.91742675 C9.68097706,5.85916181 8.91753436,6.62255942 7.9757993,6.62255942 C7.03432147,6.6215591 6.27139922,5.85850155 6.27056585,4.91702357 Z" id="Shape"></path>
                    </g>
                </g>
            </g>
        </g>
    </g>
</svg>