<?xml version="1.0" encoding="UTF-8"?>
<svg width="27px" height="27px" viewBox="0 0 27 27" version="1.1" xmlns="http://www.w3.org/2000/svg" xmlns:xlink="http://www.w3.org/1999/xlink">
    <!-- Generator: Sketch 58 (84663) - https://sketch.com -->
    <title>Group 7</title>
    <desc>Created with Sketch.</desc>
    <g id="Page-1" stroke="none" stroke-width="1" fill="none" fill-rule="evenodd">
        <g id="Venue-details--N--" transform="translate(-38.000000, -952.000000)" fill-rule="nonzero">
            <g id="Group-18" transform="translate(22.000000, 928.000000)">
                <g id="Group-12" transform="translate(10.800000, 18.000001)">
                    <g id="Group-7" transform="translate(6.000000, 6.000000)">
                        <g id="heart-(2)" transform="translate(0.000000, 14.440000)">
                            <path d="M2.51508294,2.12909745 C2.23744137,2.12909745 2.01206635,2.35447247 2.01206635,2.63211404 C2.01206635,2.90975565 2.23744137,3.13513062 2.51508294,3.13513062 C2.7927245,3.13513062 3.01809952,2.90975565 3.01809952,2.63211404 C3.01809952,2.35447247 2.7927245,2.12909745 2.51508294,2.12909745 Z" id="Path" fill="#000000"></path>
                            <path d="M23.1195069,3.8733468 L18.3773966,5.50363141 C18.3984212,5.38691582 18.4102106,5.26784238 18.4102106,5.1470005 C18.4102106,4.03761311 17.5077281,3.13493415 16.3981443,3.13493415 L13.1407189,3.13493415 C13.0542629,3.13493415 12.9689859,3.11273069 12.8937299,3.07028867 L10.2361911,1.57558273 C9.71077451,1.27947099 9.11363884,1.1228678 8.50942945,1.1228678 L4.94351342,1.1228678 C4.73601908,0.537521528 4.17680608,0.1170311 3.52111611,0.1170311 L0.503016587,0.1170311 C0.225178494,0.1170311 0,0.342209644 0,0.620047687 L0,9.67414978 C0,9.95198788 0.225178494,10.1771664 0.503016587,10.1771664 L3.52111611,10.1771664 C4.16187278,10.1771664 4.7112612,9.77455662 4.92936608,9.20905592 C5.49879655,9.27979262 6.15763037,9.44818527 6.57163661,9.69654971 L9.20225617,11.2749608 C10.1988578,11.8730789 11.3398802,12.1892327 12.5023201,12.1892327 C13.4234692,12.1892327 14.3159306,11.9958857 15.1551431,11.6146935 L24.5436727,7.48072236 C25.5835022,7.05885648 26.0969328,5.81133606 25.502548,4.71177324 C25.0653558,3.90262393 24.041442,3.54265268 23.1195069,3.8733468 L23.1195069,3.8733468 Z M4.0241327,8.6704745 C4.02295373,8.94674061 3.79757876,9.17113319 3.52111611,9.17113319 L1.00603317,9.17113319 L1.00603317,1.12306427 L3.52111611,1.12306427 C3.79836472,1.12306427 4.0241327,1.34863578 4.0241327,1.62608086 L4.0241327,8.6704745 Z M24.1614979,6.5503382 C24.1561926,6.55230309 24.1508874,6.55466098 24.1455822,6.55682239 C24.1455822,6.55682239 14.7431018,10.6968847 14.7413334,10.6976706 C14.0329838,11.0199156 13.2796379,11.1831995 12.5023201,11.1831995 C11.5222237,11.1831995 10.5602045,10.9167579 9.72000959,10.4123659 L7.08919355,8.83395489 C6.52605074,8.4961871 5.71965227,8.29026468 5.03016587,8.20773852 L5.03016587,2.12909745 L8.50942945,2.12909745 C8.94092336,2.12909745 9.36730849,2.24070425 9.74280253,2.45232494 L12.4003413,3.94703083 C12.6255199,4.07396395 12.8817439,4.1411638 13.1407189,4.1411638 L16.3981443,4.1411638 C16.952838,4.1411638 17.4041774,4.5923068 17.4041774,5.14719697 C17.4041774,5.69992579 16.9526414,6.15323015 16.3981443,6.15323015 L11.2846663,6.15323015 C11.0068282,6.15323015 10.7816497,6.37840869 10.7816497,6.65624674 C10.7816497,6.93388835 11.0068282,7.15906685 11.2846663,7.15906685 L16.3981443,7.15906685 C16.7280524,7.15906685 17.0528518,7.07713017 17.3411039,6.9234743 C17.3411039,6.9234743 23.4549168,4.82180812 23.4572747,4.82102216 C23.9080247,4.65832773 24.417722,4.82023619 24.6175532,5.19003201 C24.9172018,5.74433269 24.6694268,6.34697016 24.1614979,6.5503382 L24.1614979,6.5503382 Z" id="Shape" fill="#E41F7B"></path>
                        </g>
                        <g id="favorites-(1)" transform="translate(8.400000, 0.000000)" fill="#E41F7B">
                            <path d="M14.2795714,6.00905148 C14.5599264,5.73577258 14.658902,5.33469942 14.5379419,4.96235426 C14.4169517,4.5900091 14.1011251,4.32374587 13.7136902,4.26746923 L10.3259026,3.77519222 C10.2594049,3.76554566 10.2019186,3.72378421 10.1721625,3.66348565 L8.65710807,0.59367174 C8.48386309,0.242585304 8.13301858,0.0244944025 7.74150126,0.0244944025 C7.34998394,0.0244944025 6.99913942,0.242585304 6.82589445,0.59367174 L5.31084005,3.66351589 C5.28105365,3.72378421 5.22359765,3.76554566 5.15706964,3.77522246 L1.76934258,4.26746923 C1.38190766,4.32374587 1.06611131,4.5900091 0.945090815,4.96235426 C0.824070323,5.33469942 0.923076093,5.73577258 1.2034614,6.00905148 L3.65486725,8.39858628 C3.70297909,8.44551877 3.72496357,8.51310518 3.71359333,8.57936102 L3.1348904,11.9534196 C3.06872527,12.3393123 3.22434032,12.721939 3.54107412,12.9520655 C3.85780791,13.1822524 4.26991867,13.2119783 4.61640862,13.0298427 L7.64648717,11.4368296 C7.70599949,11.4055312 7.77703326,11.4055312 7.83657583,11.4368296 L10.8666846,13.0298427 C11.0174008,13.1090716 11.1804851,13.1482021 11.3427832,13.1482021 C11.553556,13.1482021 11.7629983,13.082158 11.9419284,12.9520352 C12.2586622,12.7218786 12.4143075,12.3392216 12.3481121,11.9533894 L11.7694092,8.57933078 C11.7580692,8.51307494 11.7800234,8.44548853 11.8281353,8.39855604 L14.2795714,6.00905148 Z M10.9643901,8.71746712 L11.543093,12.0915862 C11.5624466,12.2045023 11.4927434,12.2688833 11.4618684,12.2912912 C11.4309631,12.3136688 11.3481659,12.3601476 11.2468015,12.3068043 L8.21669267,10.7137912 C8.06794209,10.6356207 7.90476703,10.5964902 7.74156174,10.5964902 C7.57835644,10.5964902 7.41515115,10.6356207 7.26643081,10.7137609 L4.23635227,12.3067438 C4.1349273,12.3600569 4.05216041,12.3136385 4.02128536,12.2912307 C3.99041032,12.2688228 3.92067687,12.2044419 3.94006072,12.0915257 L4.51876365,8.71746712 C4.57558462,8.38618788 4.46584365,8.04834657 4.22510298,7.81371439 L1.77369714,5.42417959 C1.69165601,5.34416454 1.71022337,5.25111605 1.72204721,5.21482804 C1.73381057,5.1785098 1.7735157,5.09229555 1.88688547,5.07584499 L5.27458229,4.58356798 C5.60719208,4.53524446 5.89462331,4.32646747 6.04340413,4.02500488 L7.55845852,0.955160736 C7.609171,0.852435446 7.70339885,0.841337365 7.74159198,0.841337365 C7.77972462,0.841337365 7.87395247,0.852405206 7.9246952,0.955160736 L7.9246952,0.955190976 L9.43974959,4.02503512 C9.58850016,4.32649771 9.87590115,4.5352747 10.2085109,4.58359822 L13.5962682,5.07587523 C13.709638,5.09232579 13.7493129,5.17854004 13.7611065,5.21485828 C13.7729001,5.25117653 13.7914977,5.34425526 13.7094263,5.42420983 L11.2580205,7.81374463 C11.0173101,8.04834657 10.9075691,8.38618788 10.9643901,8.71746712 Z" id="Shape"></path>
                            <path d="M12.5127992,0.59346006 C12.3302705,0.460887886 12.0748937,0.50134901 11.9423215,0.683817189 L11.5087706,1.28051293 C11.3761984,1.46298111 11.4166293,1.71841841 11.5991277,1.85099059 C11.6716735,1.90363843 11.75565,1.92900979 11.8388705,1.92900979 C11.965183,1.92900979 12.0897113,1.87061635 12.1696054,1.7606637 L12.6031563,1.16396796 C12.7357285,0.981469539 12.6952976,0.726032233 12.5127992,0.59346006 Z" id="Path"></path>
                            <path d="M3.9723268,1.27809373 L3.53877588,0.681397988 C3.40623394,0.49899029 3.15082688,0.458529166 2.96829822,0.591040859 C2.78583004,0.723613033 2.74536892,0.979050338 2.87794109,1.16151852 L3.31149201,1.75821426 C3.39141634,1.86825763 3.51594467,1.92662083 3.64228741,1.92662083 C3.72553813,1.92662083 3.80954486,1.90124947 3.88199991,1.84857139 C4.06446809,1.71602945 4.10492921,1.46059215 3.9723268,1.27809373 Z" id="Path"></path>
                            <path d="M1.49845263,9.18778988 C1.42874942,8.97329754 1.19835084,8.85587561 0.983798019,8.92557882 L0.282320668,9.15352796 C0.0677678468,9.22323117 -0.049593605,9.45369023 0.020109602,9.66818257 C0.0761745677,9.84082275 0.236295384,9.95053348 0.408451721,9.95053348 C0.450273645,9.95053348 0.49282133,9.94403188 0.534764214,9.93039364 L1.23624156,9.7024445 C1.45076415,9.63274129 1.56815584,9.40234271 1.49845263,9.18778988 Z" id="Path"></path>
                            <path d="M7.74159198,13.72249 C7.5160318,13.72249 7.3331705,13.9053513 7.3331705,14.1309115 L7.3331705,14.8685257 C7.3331705,15.0940858 7.5160318,15.2769471 7.74159198,15.2769471 C7.96715216,15.2769471 8.15001346,15.0940858 8.15001346,14.8685257 L8.15001346,14.1309115 C8.15001346,13.9053211 7.9671824,13.72249 7.74159198,13.72249 Z" id="Path"></path>
                            <path d="M15.2005609,9.15410252 L14.4990835,8.92615338 C14.2846214,8.85651065 14.0541321,8.97384186 13.9844289,9.18839468 C13.9147257,9.40294751 14.0320872,9.63334609 14.24664,9.7030493 L14.9481173,9.93099844 C14.9900602,9.94460644 15.0325777,9.9510778 15.0743996,9.9510778 C15.2465862,9.9510778 15.406707,9.84133683 15.462772,9.66872689 C15.5324752,9.45420431 15.4150835,9.22380573 15.2005609,9.15410252 Z" id="Path"></path>
                        </g>
                    </g>
                </g>
            </g>
        </g>
    </g>
</svg>