<?xml version="1.0" encoding="UTF-8"?>
<svg width="16px" height="12px" viewBox="0 0 16 12" version="1.1" xmlns="http://www.w3.org/2000/svg" xmlns:xlink="http://www.w3.org/1999/xlink">
    <!-- Generator: Sketch 58 (84663) - https://sketch.com -->
    <title>mail</title>
    <desc>Created with Sketch.</desc>
    <g id="Page-1" stroke="none" stroke-width="1" fill="none" fill-rule="evenodd">
        <g id="Event-details--N-" transform="translate(-39.000000, -646.000000)" fill="#E41F7B" fill-rule="nonzero">
            <g id="mail" transform="translate(39.000000, 646.000000)">
                <path d="M15.47,10.49125 L15.47,0.708749998 C15.47,0.527624999 15.40028,0.362914999 15.286985,0.238489999 C15.28527,0.236459999 15.283345,0.234535 15.28156,0.232505 C15.15367,0.0952349998 14.97195,0.00874999998 14.77,0.00874999998 L0.699999999,0.00874999998 C0.498294999,0.00874999998 0.316784999,0.0950249998 0.18893,0.23198 C0.18697,0.23422 0.184835,0.236354999 0.18291,0.238594999 C0.0696849999,0.363019999 0,0.527694999 0,0.708749998 L0,10.49125 C0,10.67241 0.0697549999,10.83719 0.183085,10.961615 C0.184625,10.96347 0.186375,10.965185 0.187985,10.967005 C0.315874999,11.104555 0.497804999,11.19125 0.699999999,11.19125 L14.77,11.19125 C14.97195,11.19125 15.15367,11.104765 15.28156,10.967495 C15.283345,10.965465 15.28527,10.963575 15.286985,10.96151 C15.40028,10.837085 15.47,10.672375 15.47,10.49125 Z M3.43139999,7.63206498 C3.29199499,7.49818998 3.07040999,7.50270498 2.93653499,7.64214498 L0.699999999,9.97139498 L0.699999999,1.228605 L4.89733999,5.59999999 L3.76351499,6.78086499 C3.62963999,6.92026999 3.63415499,7.14185498 3.77359499,7.27572998 C3.84142499,7.34086498 3.92874999,7.37327498 4.01593499,7.37327498 C4.10787999,7.37327498 4.19971999,7.33725998 4.26845999,7.26568498 L5.38257999,6.10536499 L6.99772499,7.78749998 C7.19330498,7.99119998 7.45513998,8.10337498 7.73499998,8.10337498 C8.01485998,8.10337498 8.27669498,7.99116498 8.47227498,7.78749998 L10.08742,6.10536499 L14.298725,10.49125 L1.171275,10.49125 L3.44144499,8.12692998 C3.57531999,7.98752498 3.57080499,7.76593998 3.43139999,7.63206498 Z M7.96736498,7.30267998 C7.90502998,7.36760498 7.82249998,7.40337498 7.73499998,7.40337498 C7.64749998,7.40337498 7.56500498,7.36760498 7.50263498,7.30267998 L1.171275,0.708749998 L14.29869,0.708749998 L7.96736498,7.30267998 Z M10.57266,5.59999999 L14.77,1.228605 L14.77007,9.97149998 L10.57266,5.59999999 Z" id="Shape"></path>
            </g>
        </g>
    </g>
</svg>