<?xml version="1.0" encoding="UTF-8"?>
<svg width="13px" height="20px" viewBox="0 0 13 20" version="1.1" xmlns="http://www.w3.org/2000/svg" xmlns:xlink="http://www.w3.org/1999/xlink">
    <!-- Generator: Sketch 58 (84663) - https://sketch.com -->
    <title>menu (5)</title>
    <desc>Created with Sketch.</desc>
    <g id="Page-1" stroke="none" stroke-width="1" fill="none" fill-rule="evenodd">
        <g id="Venue-details--N--" transform="translate(-41.000000, -682.000000)" fill="#E41F7B" fill-rule="nonzero">
            <g id="Group-4-Copy" transform="translate(33.000000, 677.000000)">
                <g id="menu-(5)" transform="translate(8.000000, 5.000000)">
                    <path d="M11.5018349,2.33164762 L11.5018349,1.06813422 C11.5050605,0.744460678 11.3610221,0.436876728 11.1103086,0.232127962 C10.8977646,0.0618623899 10.6185199,-0.00072959988 10.3536751,0.0625151898 L0.948364645,2.33848282 C0.434265529,2.37311961 0.0345215943,2.79947474 0.0330239946,3.31468746 L0.0330239946,18.7156577 C0.0335999945,19.2583264 0.473395122,19.6981216 1.01606383,19.6986976 L11.5018349,19.6986976 C12.0445036,19.6981216 12.4842988,19.2583264 12.4848748,18.7156577 L12.4848748,3.31468746 C12.4842604,2.77201875 12.0445036,2.33226202 11.5018349,2.33164762 Z M10.5079279,0.699647885 C10.5774319,0.683519888 10.6505071,0.701107085 10.705035,0.747148678 C10.7983086,0.827212664 10.8503406,0.945215845 10.8464622,1.06809582 L10.8464622,2.33164762 L3.76373698,2.33164762 L10.5079279,0.699647885 Z M11.8295021,18.7156577 C11.8292717,18.8965217 11.6826989,19.0430945 11.5018349,19.0433249 L1.01606383,19.0433249 C0.835199863,19.0430945 0.688627087,18.8965217 0.688396687,18.7156577 L0.688396687,3.31468746 C0.688627087,3.13382349 0.835199863,2.98725071 1.01606383,2.98702031 L11.5018349,2.98702031 C11.6826989,2.98725071 11.8292717,3.13382349 11.8295021,3.31468746 L11.8295021,18.7156577 Z" id="Shape"></path>
                    <path d="M7.89734271,14.0515177 C8.44001142,14.0509417 8.87980654,13.6111466 8.88038254,13.0684779 L8.88038254,9.1363185 C9.24218729,9.1359729 9.53537124,8.84275055 9.53575524,8.48094581 L9.53575524,6.51486613 C9.53575524,5.08254637 8.79882096,4.08814013 7.61237635,3.91948736 L7.28789641,3.87356097 C7.19393162,3.86027457 7.09881484,3.88842176 7.02712205,3.95062975 C6.95546766,4.01287614 6.91430287,4.10311613 6.91426447,4.19804091 L6.91426447,13.0684395 C6.91491727,13.6111466 7.35467399,14.0509033 7.89734271,14.0515177 Z M7.56967556,4.57612725 C8.75143537,4.77646002 8.88038254,5.99485342 8.88038254,6.51482773 L8.88038254,8.48090741 L8.5527154,8.48090741 C8.37173623,8.48090741 8.22504825,8.62763379 8.22504825,8.80857456 L8.22504825,13.0684011 C8.22504825,13.2493802 8.07836028,13.3960682 7.89738111,13.3960682 C7.71640194,13.3960682 7.56971396,13.2493802 7.56971396,13.0684011 L7.56971396,4.57612725 L7.56967556,4.57612725 Z" id="Shape"></path>
                    <path d="M3.6375162,7.97663869 L3.6375162,13.0684779 C3.6375162,13.6114154 4.07761853,14.0515177 4.62055604,14.0515177 C5.16349355,14.0515177 5.60359588,13.6114154 5.60359588,13.0684779 L5.60359588,7.97663869 C6.00979101,7.74366593 6.25989017,7.3108212 6.25897111,6.84257168 L6.25897111,4.22111931 C6.25897111,4.04014014 6.1122806,3.89345216 5.93130143,3.89345216 C5.75032226,3.89345216 5.60363428,4.04014014 5.60363428,4.22111931 L5.60363428,5.85953184 C5.60363428,6.04051101 5.45690791,6.18719899 5.27596714,6.18719899 C5.09498796,6.18719899 4.94829999,6.04051101 4.94829999,5.85953184 L4.94829999,4.22111931 C4.94829999,4.04014014 4.80161201,3.89345216 4.62063284,3.89345216 C4.43965367,3.89345216 4.2929657,4.04014014 4.2929657,4.22111931 L4.2929657,5.85953184 C4.2929657,6.04051101 4.14627772,6.18719899 3.96529855,6.18719899 C3.78431938,6.18719899 3.6376314,6.04051101 3.6376314,5.85953184 L3.6376314,4.22111931 C3.6376314,4.04014014 3.49094343,3.89345216 3.30996426,3.89345216 C3.12898509,3.89345216 2.98229341,4.04014014 2.98229341,4.22111931 L2.98229341,6.84257168 C2.98118351,7.3107828 3.23132107,7.74362753 3.6375162,7.97663869 Z M3.63750562,6.78213009 C3.74246339,6.82099088 3.85332417,6.84141968 3.96518335,6.84253328 C4.20783291,6.84176528 4.44149687,6.75060369 4.62055604,6.58686612 C4.8847096,6.83308688 5.26540714,6.90873487 5.60360698,6.78216849 L5.60360698,6.84253328 C5.60520868,7.11882123 5.43094951,7.36557959 5.16998315,7.45647238 C5.03734957,7.50174597 4.94822319,7.62639235 4.94822319,7.76655233 L4.94822319,13.0684779 C4.94822319,13.249457 4.80153521,13.396145 4.62055604,13.396145 C4.43957687,13.396145 4.2928889,13.249457 4.2928889,13.0684779 L4.2928889,7.76655233 C4.2928889,7.62639235 4.20376251,7.50174597 4.07112893,7.45647238 C3.81020098,7.36557959 3.6359418,7.11885963 3.63750562,6.84253328 L3.63750562,6.78213009 Z" id="Shape"></path>
                    <path d="M2.98214351,16.6729317 L7.56967556,16.6729317 C7.75065473,16.6729317 7.89734271,16.5262437 7.89734271,16.3452645 C7.89734271,16.1642854 7.75061633,16.0175974 7.56967556,16.0175974 L2.98214351,16.0175974 C2.80116434,16.0175974 2.65447636,16.1642854 2.65447636,16.3452645 C2.65447636,16.5262437 2.80116434,16.6729317 2.98214351,16.6729317 Z" id="Path"></path>
                    <path d="M9.53575524,16.0175974 L8.88038254,16.0175974 C8.69940337,16.0175974 8.5527154,16.1642854 8.5527154,16.3452645 C8.5527154,16.5262437 8.69940337,16.6729317 8.88038254,16.6729317 L9.53575524,16.6729317 C9.71673441,16.6729317 9.86342238,16.5262437 9.86342238,16.3452645 C9.86342238,16.1642854 9.71673441,16.0175974 9.53575524,16.0175974 Z" id="Path"></path>
                    <path d="M9.53575524,17.3283044 L6.91430287,17.3283044 C6.7333237,17.3283044 6.58663572,17.4749923 6.58663572,17.6559715 C6.58663572,17.8369507 6.7333237,17.9836387 6.91430287,17.9836387 L9.53575524,17.9836387 C9.71673441,17.9836387 9.86342238,17.8369507 9.86342238,17.6559715 C9.86342238,17.4749923 9.71673441,17.3283044 9.53575524,17.3283044 Z" id="Path"></path>
                    <path d="M5.60359588,17.3283044 L5.27592874,17.3283044 C5.09494956,17.3283044 4.94826159,17.4749923 4.94826159,17.6559715 C4.94826159,17.8369507 5.09498796,17.9836387 5.27592874,17.9836387 L5.60359588,17.9836387 C5.78457505,17.9836387 5.93126303,17.8369507 5.93126303,17.6559715 C5.93126303,17.4749923 5.78457505,17.3283044 5.60359588,17.3283044 Z" id="Path"></path>
                    <path d="M3.96518335,17.3283044 L2.98214351,17.3283044 C2.80116434,17.3283044 2.65447636,17.4749923 2.65447636,17.6559715 C2.65447636,17.8369507 2.80116434,17.9836387 2.98214351,17.9836387 L3.96518335,17.9836387 C4.14616252,17.9836387 4.2928505,17.8369507 4.2928505,17.6559715 C4.2928505,17.4749923 4.14616252,17.3283044 3.96518335,17.3283044 Z" id="Path"></path>
                </g>
            </g>
        </g>
    </g>
</svg>