<?xml version="1.0" encoding="UTF-8"?>
<svg width="17px" height="17px" viewBox="0 0 17 17" version="1.1" xmlns="http://www.w3.org/2000/svg" xmlns:xlink="http://www.w3.org/1999/xlink">
    <!-- Generator: Sketch 58 (84663) - https://sketch.com -->
    <title>money (1)</title>
    <desc>Created with Sketch.</desc>
    <g id="Page-1" stroke="none" stroke-width="1" fill="none" fill-rule="evenodd">
        <g id="Event-details---after-bookings-Copy" transform="translate(-38.000000, -693.000000)" fill="#E41F7B" fill-rule="nonzero">
            <g id="money-(1)" transform="translate(38.000000, 693.000000)">
                <path d="M11.2844829,10.7368148 C10.8841598,10.7368148 10.5584828,10.4549288 10.5584828,10.1084618 C10.5584828,9.76196174 10.8841598,9.48007572 11.2844829,9.48007572 C11.6848059,9.48007572 12.0104829,9.76196174 12.0104829,10.1084618 C12.0104829,10.2906878 12.1582569,10.4384618 12.3404829,10.4384618 C12.522709,10.4384618 12.670483,10.2906878 12.670483,10.1084618 C12.670483,9.50373673 12.2199009,8.99527269 11.6144829,8.85726668 L11.6144829,8.68563366 C11.6144829,8.50340765 11.4667089,8.35563364 11.2844829,8.35563364 C11.1022568,8.35563364 10.9544828,8.50340765 10.9544828,8.68563366 L10.9544828,8.85726668 C10.3490648,8.99527269 9.89848276,9.50373673 9.89848276,10.1084618 C9.89848276,10.8188528 10.5202358,11.3968149 11.2844829,11.3968149 C11.6848059,11.3968149 12.0104829,11.6787009 12.0104829,12.0252009 C12.0104829,12.3717009 11.6848059,12.653587 11.2844829,12.653587 C10.8841598,12.653587 10.5584828,12.3717009 10.5584828,12.0252009 C10.5584828,11.8429749 10.4107088,11.6952009 10.2284828,11.6952009 C10.0462568,11.6952009 9.89848276,11.8429749 9.89848276,12.0252009 C9.89848276,12.629926 10.3490648,13.13839 10.9544828,13.276396 L10.9544828,13.418956 C10.9544828,13.601182 11.1022568,13.748956 11.2844829,13.748956 C11.4667089,13.748956 11.6144829,13.601182 11.6144829,13.418956 L11.6144829,13.276396 C12.2199009,13.13839 12.670483,12.629926 12.670483,12.0252009 C12.670483,11.3147769 12.0487299,10.7368148 11.2844829,10.7368148 Z" id="Path"></path>
                <path d="M14.8989071,8.77390867 C14.4678281,8.10219362 13.8604961,7.56468958 13.142581,7.21957555 C12.978274,7.14057354 12.781099,7.20974155 12.702163,7.37401556 C12.623194,7.53828958 12.692329,7.73543159 12.856603,7.8144006 C14.1076661,8.41579264 14.9160011,9.70077974 14.9160011,11.0880338 C14.9160011,11.6816379 14.7696791,12.2703249 14.4929081,12.790537 C14.4073061,12.951412 14.4683231,13.15126 14.6292311,13.236862 C14.6785991,13.26313 14.7316631,13.275604 14.7839351,13.275604 C14.9020091,13.275604 15.0162221,13.212046 15.0755562,13.100539 C15.4029492,12.485287 15.5760012,11.7893499 15.5760012,11.0880338 C15.5760012,10.2643538 15.3418662,9.46413672 14.8989071,8.77390867 Z" id="Path"></path>
                <path d="M11.8032099,6.79806652 L11.7810009,6.79803352 C11.5987749,6.79803352 11.4510009,6.94577453 11.4510009,7.12803354 C11.4510009,7.31029256 11.5987749,7.45803357 11.7810009,7.45803357 L11.8001079,7.45806657 C11.8006359,7.45806657 11.8011309,7.45806657 11.8016919,7.45806657 C11.9832249,7.45806657 12.1308009,7.31134856 12.1316624,7.12961754 C12.1324839,6.94735853 11.9854359,6.79892452 11.8032099,6.79806652 Z" id="Path"></path>
                <path d="M9.71543174,14.3616671 C8.46440165,13.7602421 7.65606658,12.475255 7.65606658,11.0880338 C7.65606658,10.4944298 7.8023886,9.90574276 8.07915962,9.38553072 C8.16476162,9.2246557 8.10374462,9.02480769 7.94283661,8.93920568 C7.78199459,8.85360368 7.58208058,8.91462068 7.49651157,9.07552869 C7.16911855,9.69081374 6.99606653,10.3867178 6.99606653,11.0880338 C6.99606653,11.9117139 7.23020155,12.711898 7.67316059,13.402159 C8.10423962,14.0738741 8.71157166,14.6113781 9.42948672,14.9565251 C9.47558772,14.9787011 9.52429573,14.9891621 9.57224473,14.9891621 C9.69513674,14.9891621 9.81307875,14.9202251 9.86990475,14.8020851 C9.94880776,14.6378111 9.87970575,14.4406361 9.71543174,14.3616671 Z" id="Path"></path>
                <path d="M10.7910668,14.7180341 L10.7719598,14.7179676 C10.5888758,14.7176381 10.4412998,14.8641251 10.4404711,15.0464171 C10.4396168,15.2286762 10.5867308,15.3771102 10.7689568,15.3779682 L10.7910668,15.3780342 C10.9732928,15.3780342 11.1210668,15.2302602 11.1210668,15.0480341 C11.1210668,14.8658081 10.9732928,14.7180341 10.7910668,14.7180341 Z" id="Path"></path>
                <path d="M12.784498,5.68154443 C12.744337,5.58584443 12.695134,5.49565542 12.637879,5.41200041 L13.497001,5.41200041 C14.3340131,5.41200041 15.0150011,4.73101236 15.0150011,3.8940003 C15.0150011,3.05698823 14.3340131,2.37600018 13.497001,2.37600018 L10.8543608,2.37600018 C11.0223638,2.13173416 11.1210008,1.83621914 11.1210008,1.51800012 C11.1210008,0.680988052 10.4400128,0 9.60300073,0 L1.51800012,0 C0.680988052,0 0,0.680988052 0,1.51800012 C0,2.35501218 0.680988052,3.03600023 1.51800012,3.03600023 L4.16064032,3.03600023 C3.9926373,3.28026625 3.8940003,3.57578127 3.8940003,3.8940003 C3.8940003,4.21221932 3.9926043,4.50773434 4.16064032,4.75200036 L3.30000025,4.75200036 C2.46298819,4.75200036 1.78200014,5.43298841 1.78200014,6.27000048 C1.78200014,6.75071152 2.00686215,7.17967855 2.35669518,7.45800057 C2.00686215,7.73632259 1.78200014,8.16528962 1.78200014,8.64600066 C1.78200014,9.1267117 2.00686215,9.55567873 2.35669518,9.83400075 C2.00686215,10.1123228 1.78200014,10.5412898 1.78200014,11.0220008 C1.78200014,11.5027119 2.00686215,11.9316789 2.35669518,12.2100009 C2.00686215,12.488323 1.78200014,12.91729 1.78200014,13.398001 C1.78200014,14.2350131 2.46298819,14.9160011 3.30000025,14.9160011 L7.18905055,14.9160011 C8.21356863,16.0118322 9.67104674,16.6980343 11.2860339,16.6980343 C14.3793881,16.6980343 16.8960343,14.1813881 16.8960343,11.0880338 C16.8960343,8.51347265 15.1526442,6.33873948 12.784498,5.68154443 Z M13.497001,3.03600023 C13.9701221,3.03600023 14.3550011,3.42091226 14.3550011,3.8940003 C14.3550011,4.36708833 13.9701221,4.75200036 13.497001,4.75200036 L11.3850009,4.75200036 L5.41200041,4.75200036 C4.93887938,4.75200036 4.55400035,4.36708833 4.55400035,3.8940003 C4.55400035,3.42091226 4.93887938,3.03600023 5.41200041,3.03600023 L13.497001,3.03600023 Z M1.51800012,2.37600018 C1.04487908,2.37600018 0.66000005,1.99108815 0.66000005,1.51800012 C0.66000005,1.04491208 1.04487908,0.66000005 1.51800012,0.66000005 L9.60300073,0.66000005 C10.0761218,0.66000005 10.4610008,1.04491208 10.4610008,1.51800012 C10.4610008,1.99108815 10.0761218,2.37600018 9.60300073,2.37600018 L1.51800012,2.37600018 Z M3.30000025,5.41200041 L11.3850009,5.41200041 C11.5179249,5.41200041 11.6452059,5.44288842 11.7593859,5.49819642 C11.6032959,5.48509542 11.4454899,5.47803342 11.2860339,5.47803342 C9.73684874,5.47803342 8.33236864,6.10929047 7.31616656,7.12800054 L3.30000025,7.12800054 C2.82691222,7.12800054 2.44200019,6.74308851 2.44200019,6.27000048 C2.44200019,5.79691244 2.82691222,5.41200041 3.30000025,5.41200041 Z M3.30000025,7.78800059 L6.75229552,7.78800059 C6.37767949,8.30124963 6.08803846,8.88013568 5.90409645,9.50400073 L3.30000025,9.50400073 C2.82687922,9.50400073 2.44200019,9.1191217 2.44200019,8.64600066 C2.44200019,8.17291262 2.82687922,7.78800059 3.30000025,7.78800059 Z M3.30000025,10.1640008 L5.75256044,10.1640008 C5.70249944,10.4647298 5.67603343,10.7733128 5.67603343,11.0880338 C5.67603343,11.3568519 5.69547043,11.6211819 5.73219944,11.8800009 L3.30000025,11.8800009 C2.82687922,11.8800009 2.44200019,11.4951219 2.44200019,11.0220008 C2.44200019,10.5488798 2.82687922,10.1640008 3.30000025,10.1640008 Z M3.30000025,14.2560011 C2.82687922,14.2560011 2.44200019,13.8711221 2.44200019,13.398001 C2.44200019,12.92488 2.82687922,12.540001 3.30000025,12.540001 L5.86693845,12.540001 C6.03345646,13.16083 6.30395748,13.739419 6.65870751,14.2560011 L3.30000025,14.2560011 Z M11.2860339,16.0380342 C8.55660365,16.0380342 6.33603348,13.8174641 6.33603348,11.0880338 C6.33603348,8.35860364 8.55660365,6.13803347 11.2860339,6.13803347 C14.0154641,6.13803347 16.2360342,8.35860364 16.2360342,11.0880338 C16.2360342,13.8174641 14.0154641,16.0380342 11.2860339,16.0380342 Z" id="Shape"></path>
            </g>
        </g>
    </g>
</svg>