<?xml version="1.0" encoding="UTF-8"?>
<svg width="25px" height="26px" viewBox="0 0 25 26" version="1.1" xmlns="http://www.w3.org/2000/svg" xmlns:xlink="http://www.w3.org/1999/xlink">
    <!-- Generator: Sketch 58 (84663) - https://sketch.com -->
    <title>discount</title>
    <desc>Created with Sketch.</desc>
    <g id="Page-1" stroke="none" stroke-width="1" fill="none" fill-rule="evenodd">
        <g id="Venue-details--N--" transform="translate(-38.000000, -813.000000)" fill="#E41F7B" fill-rule="nonzero">
            <g id="Group-19" transform="translate(23.000000, 809.000000)">
                <g id="Group-2">
                    <g id="discount" transform="translate(15.000000, 4.000000)">
                        <path d="M23.3979003,13.1816502 C23.2949003,12.9709002 23.2949003,12.7292002 23.3979003,12.5185002 L24.3527004,10.5652502 C24.8843004,9.47770014 24.4631004,8.18145012 23.3938003,7.61410011 L21.4733003,6.5951001 C21.2661003,6.4852001 21.1240503,6.28960009 21.0835003,6.05865009 L20.7079003,3.91720006 C20.4987503,2.72490004 19.3958503,1.92370003 18.1975003,2.09325003 L16.0448502,2.39775004 C15.8125002,2.43055004 15.5827502,2.35585004 15.4142002,2.19280003 L13.8516502,0.68120001 C12.9816002,-0.160500002 11.6186002,-0.160550002 10.7486002,0.68120001 L9.18600014,2.19295003 C9.01740013,2.35605004 8.78765013,2.43060004 8.55535013,2.39790004 L6.4027001,2.09340003 C5.20395008,1.92375003 4.10145006,2.72505004 3.89230006,3.91735006 L3.51670005,6.05870009 C3.47615005,6.28970009 3.33410005,6.4852501 3.12695005,6.5952001 L1.20645002,7.61420011 C0.137150002,8.18150012 -0.284050004,9.47785014 0.247550004,10.5654002 L1.20230002,12.5186002 C1.30530002,12.7293502 1.30530002,12.9710502 1.20230002,13.1817502 L0.247500004,15.1349502 C-0.284100004,16.2225002 0.137100002,17.5187503 1.20640002,18.0861003 L3.12690005,19.1051003 C3.33410005,19.2150003 3.47615005,19.4106003 3.51670005,19.6415503 L3.89230006,21.7830003 C4.08270006,22.8684003 5.01340007,23.6296004 6.08305009,23.6295004 C6.18840009,23.6295004 6.29530009,23.6221004 6.4027501,23.6069004 L8.55540013,23.3024003 C8.78755013,23.2694503 9.01745013,23.3443003 9.18605014,23.5073504 L10.7486002,25.0189504 C11.1837002,25.4398504 11.7418002,25.6502004 12.3001002,25.6502004 C12.8582502,25.6502004 13.4167002,25.4397504 13.8516002,25.0189504 L15.4142002,23.5073504 C15.5828002,23.3443003 15.8126002,23.2698003 16.0448502,23.3024003 L18.1975003,23.6069004 C19.3964003,23.7765004 20.4987503,22.9752503 20.7079003,21.7829503 L21.0835503,19.6416003 C21.1241003,19.4106003 21.2661503,19.2150503 21.4733003,19.1051003 L23.3938003,18.0861003 C24.4631004,17.5188003 24.8843004,16.2224502 24.3527004,15.1349002 L23.3979003,13.1816502 Z M22.7017503,16.7817503 L20.7812503,17.8007503 C20.1689503,18.1257003 19.7490003,18.7036003 19.6292503,19.3864003 L19.2536503,21.5278003 C19.1829003,21.9312003 18.8099503,22.2021503 18.4043003,22.1449003 L16.2516502,21.8404003 C15.5651502,21.7431503 14.8858502,21.9641003 14.3876002,22.4460503 L12.8250002,23.9576004 C12.5307002,24.2423004 12.0695502,24.2423004 11.7751502,23.9576004 L10.2126002,22.4460003 C9.79150015,22.0386503 9.24100014,21.8179003 8.66630013,21.8179003 C8.56100013,21.8179003 8.45485013,21.8253003 8.34855012,21.8403503 L6.19590009,22.1448503 C5.79060009,22.2021503 5.41735008,21.9311503 5.34655008,21.5277503 L4.97090007,19.3863003 C4.85110007,18.7035003 4.43120007,18.1255503 3.81885006,17.8007003 L1.89835003,16.7817003 C1.53655002,16.5897502 1.39405002,16.1512002 1.57390002,15.7832502 L2.52870004,13.8300002 C2.83310004,13.2072002 2.83310004,12.4929002 2.52870004,11.8701002 L1.57390002,9.91685015 C1.39405002,9.54890014 1.53655002,9.11035014 1.89835003,8.91840013 L3.81885006,7.89940012 C4.43115007,7.57445011 4.85110007,6.9965501 4.97085007,6.31375009 L5.34645008,4.17235006 C5.41725008,3.76895006 5.79015009,3.49795005 6.19580009,3.55525005 L8.34845012,3.85975006 C9.03470013,3.95690006 9.71425014,3.73605006 10.2125002,3.25410005 L11.7751002,1.74250003 C12.0694002,1.45780002 12.5305502,1.45780002 12.8249502,1.74250003 L14.3875002,3.25410005 C14.8857502,3.73610006 15.5652002,3.95690006 16.2515502,3.85975006 L18.4042003,3.55525005 C18.8095503,3.49790005 19.1828003,3.76895006 19.2535503,4.17235006 L19.6291503,6.31380009 C19.7489503,6.9966001 20.1688503,7.57455011 20.7812003,7.89940012 L22.7017003,8.91840013 C23.0635003,9.11035014 23.2060003,9.54890014 23.0261503,9.91685015 L22.0713503,11.8700502 C21.7669503,12.4928002 21.7669503,13.2072002 22.0713503,13.8299502 L23.0261503,15.7831502 C23.2060503,16.1512002 23.0635503,16.5898002 22.7017503,16.7817503 Z" id="Shape"></path>
                        <path d="M17.6943003,7.45580011 C17.4060503,7.16750011 16.9385503,7.16750011 16.6502502,7.45580011 L6.9058001,17.2003003 C6.6175001,17.4886003 6.6175001,17.9560503 6.9058001,18.2443503 C7.04995011,18.3885003 7.23890011,18.4606003 7.42780011,18.4606003 C7.61670011,18.4606003 7.80570012,18.3885503 7.94980012,18.2443503 L17.6942503,8.49990013 C17.9826503,8.21155012 17.9826503,7.74415012 17.6943003,7.45580011 Z" id="Path"></path>
                        <path d="M9.34705014,6.20580009 C7.85445012,6.20580009 6.6401001,7.42015011 6.6401001,8.91275013 C6.6401001,10.4053502 7.85445012,11.6197002 9.34705014,11.6197002 C10.8396502,11.6197002 12.0540002,10.4053502 12.0540002,8.91275013 C12.0540002,7.42015011 10.8396502,6.20580009 9.34705014,6.20580009 Z M9.34705014,10.1431502 C8.66860013,10.1431502 8.11665012,9.59120014 8.11665012,8.91270013 C8.11665012,8.23425012 8.66860013,7.68230011 9.34705014,7.68230011 C10.0255001,7.68230011 10.5775002,8.23425012 10.5775002,8.91270013 C10.5774502,9.59120014 10.0255001,10.1431502 9.34705014,10.1431502 Z" id="Shape"></path>
                        <path d="M15.2530502,14.0805002 C13.7604502,14.0805002 12.5461002,15.2948502 12.5461002,16.7874503 C12.5461002,18.2800503 13.7604502,19.4944003 15.2530502,19.4944003 C16.7456502,19.4944003 17.9600003,18.2800503 17.9600003,16.7874503 C17.9600003,15.2948502 16.7456502,14.0805002 15.2530502,14.0805002 Z M15.2530502,18.0178503 C14.5746002,18.0178503 14.0226002,17.4659003 14.0226002,16.7874503 C14.0226002,16.1090002 14.5745502,15.5570502 15.2530502,15.5570502 C15.9315002,15.5570502 16.4834502,16.1090002 16.4834502,16.7874503 C16.4834502,17.4659003 15.9315002,18.0178503 15.2530502,18.0178503 Z" id="Shape"></path>
                    </g>
                </g>
            </g>
        </g>
    </g>
</svg>