<?xml version="1.0" encoding="UTF-8"?>
<svg width="16px" height="18px" viewBox="0 0 16 18" version="1.1" xmlns="http://www.w3.org/2000/svg" xmlns:xlink="http://www.w3.org/1999/xlink">
    <!-- Generator: Sketch 58 (84663) - https://sketch.com -->
    <title>phone</title>
    <desc>Created with Sketch.</desc>
    <g id="Page-1" stroke="none" stroke-width="1" fill="none" fill-rule="evenodd">
        <g id="Event-details--N-" transform="translate(-40.000000, -592.000000)" fill="#E41F7B" fill-rule="nonzero">
            <g id="phone" transform="translate(48.500000, 601.500000) rotate(6.000000) translate(-48.500000, -601.500000) translate(40.000000, 593.000000)">
                <path d="M11.7756156,16.3846715 C11.2467197,16.3846715 10.7223037,16.2911675 10.2095037,16.1048635 C7.95036776,15.2841915 5.85340783,13.9475516 4.14524788,12.2394236 C2.43708793,10.5312957 1.10044797,8.43430375 0.279807992,6.17516782 C0.0160959995,5.44915184 -0.0617279982,4.69971186 0.0485759986,3.94758388 C0.151903995,3.2430719 0.424799987,2.55913592 0.837791975,1.96969594 C1.25260796,1.37766396 1.80563195,0.885247974 2.43705593,0.545695984 C3.11039991,0.183615995 3.84534389,-1.13686838e-13 4.62153586,-1.13686838e-13 C4.86294386,-1.13686838e-13 5.07158385,0.168671995 5.12217585,0.404703988 L5.92582382,4.15507188 C5.96220782,4.32489587 5.91001582,4.50159987 5.78723183,4.62441586 L4.41401587,5.99759982 C5.70943983,8.57315174 7.81145577,10.6751677 10.3870077,11.9705916 L11.7601916,10.5973757 C11.8830076,10.4745917 12.0597436,10.4224637 12.2295356,10.4587837 L15.9799035,11.2624317 C16.2159675,11.3130237 16.3846075,11.5216637 16.3846075,11.7630716 C16.3846075,12.5392636 16.2009915,13.2742396 15.8388795,13.9475836 C15.4993275,14.5790076 15.0069116,15.1320315 14.4148796,15.5468475 C13.8254716,15.9598395 13.1415356,16.2327355 12.4369916,16.3360635 C12.2162236,16.3684795 11.9954876,16.3846715 11.7756156,16.3846715 L11.7756156,16.3846715 Z M4.21244787,1.04639997 C3.1886079,1.15942397 2.27987193,1.69606395 1.67641595,2.55734392 C0.99782397,3.52582389 0.839583975,4.71702386 1.24227196,5.82556783 C2.81999992,10.1687997 6.21587181,13.5646716 10.5591037,15.1423995 C11.6676157,15.5450875 12.8588156,15.3868795 13.8273276,14.7082556 C14.6886076,14.1047996 15.2252475,13.1960636 15.3382715,12.1722236 L12.2873596,11.5184637 L10.8532477,12.9525756 C10.7006397,13.1051836 10.4687677,13.1457276 10.2735037,13.0539516 C7.22742378,11.6229117 4.76175986,9.15724773 3.3307199,6.11116782 C3.2389759,5.91587182 3.2794879,5.68399983 3.4320959,5.53142384 L4.86620785,4.09731188 L4.21244787,1.04639997 Z" id="Shape"></path>
            </g>
        </g>
    </g>
</svg>