<?xml version="1.0" encoding="UTF-8"?>
<svg width="19px" height="19px" viewBox="0 0 19 19" version="1.1" xmlns="http://www.w3.org/2000/svg" xmlns:xlink="http://www.w3.org/1999/xlink">
    <!-- Generator: Sketch 58 (84663) - https://sketch.com -->
    <title>phone</title>
    <desc>Created with Sketch.</desc>
    <g id="Page-1" stroke="none" stroke-width="1" fill="none" fill-rule="evenodd">
        <g id="Profile--N-" transform="translate(-28.000000, -276.000000)" fill="#848484" fill-rule="nonzero">
            <g id="Group" transform="translate(23.000000, 275.000000)">
                <g id="phone" transform="translate(5.500000, 1.100000)">
                    <path d="M12.9531775,18.0231391 C12.3713919,18.0231391 11.7945343,17.9202847 11.2304543,17.7153503 C8.74540473,16.8126111 6.43874875,15.3423071 4.55977276,13.4633663 C2.68079678,11.5844255 1.21049279,9.27773432 0.307788797,6.79268474 C0.0177055999,5.99406715 -0.0679007994,5.16968316 0.0534335996,4.34234236 C0.167094399,3.56737917 0.467279996,2.81504958 0.921571193,2.16666558 C1.37786879,1.51543039 1.98619518,0.973772792 2.68076158,0.600265595 C3.42143997,0.201977598 4.22987837,-1.13686838e-13 5.08368956,-1.13686838e-13 C5.34923836,-1.13686838e-13 5.57874235,0.185539198 5.63439355,0.445174396 L6.51840635,4.57057916 C6.55842875,4.75738556 6.50101755,4.95175996 6.36595515,5.08685756 L4.85541756,6.59735995 C6.28038395,9.43046712 8.59260153,11.7426847 11.4257087,13.1676511 L12.9362111,11.6571135 C13.0713087,11.5220511 13.2657183,11.4647103 13.4524895,11.5046623 L17.5778943,12.3886751 C17.8375647,12.4443263 18.0230687,12.6738303 18.0230687,12.9393791 C18.0230687,13.7931903 17.8210911,14.6016639 17.4227679,15.3423423 C17.0492607,16.0369087 16.5076031,16.6452351 15.8563679,17.1015327 C15.2080191,17.5558239 14.4556895,17.8560095 13.6806911,17.9696703 C13.4378463,18.0053279 13.1950367,18.0231391 12.9531775,18.0231391 L12.9531775,18.0231391 Z M4.63369276,1.15103999 C3.50746877,1.27536639 2.50785918,1.86567038 1.84405759,2.81307838 C1.09760639,3.87840637 0.923542392,5.18872636 1.36649919,6.40812475 C3.10199997,11.1856799 6.83745914,14.9211391 11.6150143,16.6566399 C12.8343775,17.0995967 14.1446975,16.9255679 15.2100607,16.1790815 C16.1574687,15.5152799 16.7477727,14.5156703 16.8720991,13.3894463 L13.5160959,12.6703103 L11.9385727,14.2478335 C11.7707039,14.4157023 11.5156447,14.4603007 11.3008543,14.3593471 C7.95016634,12.7852031 5.23793596,10.0729727 3.66379197,6.72228475 C3.56287357,6.50745915 3.60743677,6.25239995 3.77530557,6.08456635 L5.35282876,4.50704316 L4.63369276,1.15103999 Z" id="Shape"></path>
                </g>
            </g>
        </g>
    </g>
</svg>