<?xml version="1.0" encoding="UTF-8"?>
<svg width="21px" height="21px" viewBox="0 0 21 21" version="1.1" xmlns="http://www.w3.org/2000/svg" xmlns:xlink="http://www.w3.org/1999/xlink">
    <!-- Generator: Sketch 58 (84663) - https://sketch.com -->
    <title>set-alarm</title>
    <desc>Created with Sketch.</desc>
    <g id="Page-1" stroke="none" stroke-width="1" fill="none" fill-rule="evenodd">
        <g id="Event-details---after-bookings" transform="translate(-94.000000, -1134.000000)" fill="#FFFFFF" fill-rule="nonzero">
            <g id="Group-2" transform="translate(39.000000, 1125.000000)">
                <g id="set-alarm" transform="translate(55.000000, 9.000000)">
                    <path d="M20.4219991,3.97799982 L15.7299993,0 L14.4039994,1.52999993 L19.0959991,5.50799975 L20.4219991,3.97799982 Z M6.03999973,1.63199993 L4.71399979,0.101999995 L0.021999999,3.97799982 L1.34799994,5.50799975 L6.03999973,1.63199993 Z M10.7319995,6.32399972 L9.20199959,6.32399972 L9.20199959,12.4439994 L13.9959994,15.4020393 L14.8119993,14.1779594 L10.7319995,11.7299995 L10.7319995,6.32399972 L10.7319995,6.32399972 Z M10.2219995,2.2439999 C5.12199977,2.2439999 1.04199995,6.32399972 1.04199995,11.4239995 C1.04199995,16.5239993 5.12199977,20.6039991 10.2219995,20.6039991 C15.3219993,20.6039991 19.4019991,16.5239993 19.4019991,11.4239995 C19.4019991,6.32399972 15.3219993,2.2439999 10.2219995,2.2439999 Z M10.2219995,18.5639992 C6.24399972,18.5639992 3.08199986,15.4020393 3.08199986,11.4239995 C3.08199986,7.44599967 6.24399972,4.28399981 10.2219995,4.28399981 C14.1999994,4.28399981 17.3619992,7.44599967 17.3619992,11.4239995 C17.3619992,15.4020393 14.1999994,18.5639992 10.2219995,18.5639992 Z" id="Shape"></path>
                </g>
            </g>
        </g>
    </g>
</svg>