<?xml version="1.0" encoding="UTF-8"?>
<svg width="26px" height="28px" viewBox="0 0 26 28" version="1.1" xmlns="http://www.w3.org/2000/svg" xmlns:xlink="http://www.w3.org/1999/xlink">
    <!-- Generator: Sketch 58 (84663) - https://sketch.com -->
    <title>share (2)</title>
    <desc>Created with Sketch.</desc>
    <g id="Page-1" stroke="none" stroke-width="1" fill="none" fill-rule="evenodd">
        <g id="Event-details--N-" transform="translate(-302.000000, -192.000000)" fill="#FFFFFF" fill-rule="nonzero">
            <g id="share-(2)" transform="translate(302.000000, 192.000000)">
                <path d="M21.0600006,17.9280005 C19.4596565,17.9280005 18.0376745,18.7057085 17.1515885,19.9028346 L9.52300827,16.0043045 C9.65098827,15.5694964 9.72000027,15.1096864 9.72000027,14.6340004 C9.72000027,13.9897264 9.59369427,13.3745044 9.36500426,12.8113384 L17.3602445,8.00760623 C18.2523245,9.05466625 19.5798606,9.72000027 21.0600006,9.72000027 C23.7398047,9.72000027 25.9200007,7.53980421 25.9200007,4.86000014 C25.9200007,2.18019606 23.7398047,0 21.0600006,0 C18.3801965,0 16.2000005,2.18019606 16.2000005,4.86000014 C16.2000005,5.47938015 16.3166945,6.07192217 16.5288605,6.61716019 L8.51364024,11.4328803 C7.62220821,10.4167083 6.31481418,9.77400028 4.86000014,9.77400028 C2.18019606,9.77400028 0,11.9541963 0,14.6340004 C0,17.3138045 2.18019606,19.4940005 4.86000014,19.4940005 C6.48658818,19.4940005 7.92892822,18.6906965 8.81155825,17.4600365 L16.4179985,21.3472266 C16.2763565,21.8026626 16.2000005,22.2865566 16.2000005,22.7880006 C16.2000005,25.4678047 18.3801965,27.6480008 21.0600006,27.6480008 C23.7398047,27.6480008 25.9200007,25.4678047 25.9200007,22.7880006 C25.9200007,20.1081966 23.7398047,17.9280005 21.0600006,17.9280005 Z M21.0600006,1.62000005 C22.8465366,1.62000005 24.3000007,3.07346409 24.3000007,4.86000014 C24.3000007,6.64653619 22.8465366,8.10000023 21.0600006,8.10000023 C19.2734645,8.10000023 17.8200005,6.64653619 17.8200005,4.86000014 C17.8200005,3.07346409 19.2734645,1.62000005 21.0600006,1.62000005 Z M4.86000014,17.8740005 C3.07346409,17.8740005 1.62000005,16.4205365 1.62000005,14.6340004 C1.62000005,12.8474644 3.07346409,11.3940003 4.86000014,11.3940003 C6.64653619,11.3940003 8.10000023,12.8474644 8.10000023,14.6340004 C8.10000023,16.4205365 6.64653619,17.8740005 4.86000014,17.8740005 Z M21.0600006,26.0280007 C19.2734645,26.0280007 17.8200005,24.5745367 17.8200005,22.7880006 C17.8200005,21.0014646 19.2734645,19.5480006 21.0600006,19.5480006 C22.8465366,19.5480006 24.3000007,21.0014646 24.3000007,22.7880006 C24.3000007,24.5745367 22.8465366,26.0280007 21.0600006,26.0280007 Z" id="Shape"></path>
            </g>
        </g>
    </g>
</svg>