<?xml version="1.0" encoding="UTF-8"?>
<svg width="13px" height="11px" viewBox="0 0 13 11" version="1.1" xmlns="http://www.w3.org/2000/svg" xmlns:xlink="http://www.w3.org/1999/xlink">
    <!-- Generator: Sketch 58 (84663) - https://sketch.com -->
    <title>favorites (1)</title>
    <desc>Created with Sketch.</desc>
    <g id="Page-1" stroke="none" stroke-width="1" fill="none" fill-rule="evenodd">
        <g id="Venue-details--N--" transform="translate(-84.000000, -941.000000)" fill="#E41F7B" fill-rule="nonzero">
            <g id="Group-18" transform="translate(22.000000, 928.000000)">
                <g id="Group-8" transform="translate(62.000000, 13.000000)">
                    <g id="favorites-(1)">
                        <path d="M11.8996425,5.00754279 C12.1332717,4.77981037 12.2157513,4.44558274 12.1149513,4.13529512 C12.0141261,3.8250075 11.7509373,3.60312148 11.4280749,3.55622428 L8.60491867,3.14599344 C8.54950386,3.13795464 8.50159866,3.10315344 8.47680186,3.05290464 L7.21425656,0.494726438 C7.06988575,0.202154416 6.77751532,0.0204120016 6.4512509,0.0204120016 C6.12498647,0.0204120016 5.83261605,0.202154416 5.68824524,0.494726438 L4.42569994,3.05292984 C4.40087794,3.10315344 4.35299794,3.13795464 4.29755793,3.14601864 L1.47445211,3.55622428 C1.15158969,3.60312148 0.888426069,3.8250075 0.787575661,4.13529512 C0.686725253,4.44558274 0.769230059,4.77981037 1.00288448,5.00754279 L3.04572264,6.99882174 C3.08581584,7.03793214 3.10413624,7.09425415 3.09466104,7.14946735 L2.6124086,9.96118277 C2.557271,10.28276 2.68695021,10.6016156 2.95089503,10.7933876 C3.21483985,10.98521 3.55826548,11.0099817 3.8470071,10.858202 L6.37207249,9.53069114 C6.4216661,9.50460914 6.4808609,9.50460914 6.53047971,9.53069114 L9.0555703,10.858202 C9.18116711,10.924226 9.31707072,10.9568349 9.45231913,10.9568349 C9.62796314,10.9568349 9.80249836,10.901798 9.95160677,10.7933624 C10.2155516,10.6015652 10.345256,10.2826844 10.2900932,9.96115757 L9.80784076,7.14944215 C9.79839076,7.09422895 9.81668596,7.03790694 9.85677916,6.99879654 L11.8996425,5.00754279 Z M9.13699151,7.26455576 L9.61924394,10.0763216 C9.63537195,10.1704184 9.57728594,10.2240692 9.55155674,10.2427424 C9.52580234,10.2613904 9.45680473,10.3001228 9.37233432,10.25567 L6.84724373,8.92815909 C6.72328492,8.86301709 6.58730571,8.83040828 6.4513013,8.83040828 C6.31529689,8.83040828 6.17929248,8.86301709 6.05535887,8.92813389 L3.53029347,10.2556196 C3.44577267,10.3000472 3.37680026,10.2613652 3.35107106,10.242692 C3.32534186,10.2240188 3.26723065,10.170368 3.28338385,10.0762712 L3.76563629,7.26455576 C3.81298709,6.98848974 3.72153629,6.70695532 3.52091907,6.5114285 L1.47808091,4.52014955 C1.40971331,4.45347034 1.42518611,4.37592994 1.43503931,4.34568994 C1.44484211,4.31542473 1.47792971,4.24357953 1.57240452,4.22987073 L4.39548514,3.8196399 C4.67265996,3.77937029 4.91218598,3.60538948 5.03616999,3.35417066 L6.29871529,0.795967262 C6.34097569,0.710362855 6.4194989,0.701114454 6.4513265,0.701114454 C6.4831037,0.701114454 6.56162691,0.710337655 6.60391251,0.795967262 L6.60391251,0.795992462 L7.86645781,3.35419586 C7.99041662,3.60541468 8.22991744,3.77939549 8.50709226,3.8196651 L11.3302233,4.22989593 C11.4246981,4.24360473 11.4577605,4.31544993 11.4675885,4.34571514 C11.4774165,4.37598034 11.4929145,4.45354594 11.4245217,4.52017475 L9.38168353,6.5114537 C9.18109151,6.70695532 9.0896407,6.98848974 9.13699151,7.26455576 Z" id="Shape"></path>
                    </g>
                </g>
            </g>
        </g>
    </g>
</svg>