<svg xmlns="http://www.w3.org/2000/svg" width="13px" height="11px" viewBox="0 0 13 11">
  <g id="favorites_1_" data-name="favorites (1)" transform="translate(-0.745 -0.02)">
    <path id="Shape" d="M8.311,10.838,5.785,9.51a.17.17,0,0,0-.158,0L3.1,10.838a.851.851,0,0,1-1.234-.9l.481-2.812a.167.167,0,0,0-.049-.15L.257,4.987A.851.851,0,0,1,.729,3.536l2.823-.41a.168.168,0,0,0,.128-.094L4.943.474a.851.851,0,0,1,1.526,0L7.732,3.032a.168.168,0,0,0,.128.094l2.823.41a.851.851,0,0,1,.472,1.451L9.112,6.979a.167.167,0,0,0-.049.15l.481,2.812a.853.853,0,0,1-.838,1A.852.852,0,0,1,8.311,10.838Z" transform="translate(0.745 0.02)" fill="#e41f7b"/>
  </g>
</svg>
