<?xml version="1.0" encoding="UTF-8"?>
<svg width="15px" height="10px" viewBox="0 0 15 10" version="1.1" xmlns="http://www.w3.org/2000/svg" xmlns:xlink="http://www.w3.org/1999/xlink">
    <!-- Generator: Sketch 58 (84663) - https://sketch.com -->
    <title>list (2)</title>
    <desc>Created with Sketch.</desc>
    <g id="Page-1" stroke="none" stroke-width="1" fill="none" fill-rule="evenodd">
        <g id="Venue-details--N--" transform="translate(-40.000000, -736.000000)" fill="#E41F7B" fill-rule="nonzero">
            <g id="Group-5-Copy" transform="translate(33.000000, 726.000000)">
                <g id="Group-3">
                    <g id="list-(2)" transform="translate(7.000000, 10.000000)">
                        <path d="M13.7760002,4.39600006 L4.03933605,4.39600006 C3.73004805,4.39600006 3.47933604,4.64671206 3.47933604,4.95600006 C3.47933604,5.26528807 3.73004805,5.51600007 4.03933605,5.51600007 L13.7760002,5.51600007 C14.0852882,5.51600007 14.3360002,5.26528807 14.3360002,4.95600006 C14.3360002,4.64671206 14.0852882,4.39600006 13.7760002,4.39600006 Z" id="Path"></path>
                        <path d="M13.7760002,0.196000003 L4.03933605,0.196000003 C3.73004805,0.196000003 3.47933604,0.446712006 3.47933604,0.75600001 C3.47933604,1.06528801 3.73004805,1.31600002 4.03933605,1.31600002 L13.7760002,1.31600002 C14.0852882,1.31600002 14.3360002,1.06528801 14.3360002,0.75600001 C14.3360002,0.446712006 14.0852882,0.196000003 13.7760002,0.196000003 Z" id="Path"></path>
                        <path d="M13.7760002,8.59600011 L4.03933605,8.59600011 C3.73004805,8.59600011 3.47933604,8.84671211 3.47933604,9.15600012 C3.47933604,9.46528812 3.73004805,9.71600012 4.03933605,9.71600012 L13.7760002,9.71600012 C14.0852882,9.71600012 14.3360002,9.46528812 14.3360002,9.15600012 C14.3360002,8.84671211 14.0852882,8.59600011 13.7760002,8.59600011 Z" id="Path"></path>
                        <circle id="Oval" cx="0.75600001" cy="0.75600001" r="1"></circle>
                        <circle id="Oval" cx="0.75600001" cy="4.95600006" r="1"></circle>
                        <circle id="Oval" cx="0.75600001" cy="9.15600012" r="1"></circle>
                    </g>
                </g>
            </g>
        </g>
    </g>
</svg>