<?xml version="1.0" encoding="UTF-8"?>
<svg width="18px" height="18px" viewBox="0 0 18 18" version="1.1" xmlns="http://www.w3.org/2000/svg" xmlns:xlink="http://www.w3.org/1999/xlink">
    <!-- Generator: Sketch 58 (84663) - https://sketch.com -->
    <title>movie-tickets</title>
    <desc>Created with Sketch.</desc>
    <g id="Page-1" stroke="none" stroke-width="1" fill="none" fill-rule="evenodd">
        <g id="Event-details---after-bookings-Copy" transform="translate(-38.000000, -643.000000)" fill="#E41F7B" fill-rule="nonzero">
            <g id="movie-tickets" transform="translate(38.000000, 643.000000)">
                <path d="M4.59265624,7.58925781 C4.68480466,7.58925781 4.77503907,7.55179686 4.84011716,7.48671873 C4.90519532,7.4215039 4.94265624,7.33126952 4.94265624,7.23925781 C4.94265624,7.14710936 4.90519532,7.05687498 4.84011716,6.99179686 C4.77503907,6.92671874 4.68480466,6.88925782 4.59265624,6.88925782 C4.50023437,6.88925782 4.41041016,6.92671874 4.34519532,6.99179686 C4.28011716,7.05687498 4.24265624,7.14710936 4.24265624,7.23925781 C4.24265624,7.33126952 4.28011716,7.4215039 4.34519532,7.48671873 C4.41041016,7.55179686 4.50064453,7.58925781 4.59265624,7.58925781 Z" id="Path"></path>
                <path d="M9.60640623,7.12578123 C9.54105465,7.06070311 9.45109373,7.02324216 9.35867186,7.02324216 C9.26666015,7.02324216 9.17628906,7.06070311 9.1112109,7.12578123 C9.04613281,7.19085936 9.00867186,7.28123044 9.00867186,7.37324215 C9.00867186,7.4652539 9.04613281,7.55562498 9.1112109,7.62070311 C9.17628906,7.68578123 9.26666015,7.72324215 9.35867186,7.72324215 C9.45109373,7.72324215 9.54105465,7.68578123 9.60640623,7.62070311 C9.67148435,7.55562498 9.70867185,7.46566406 9.70867185,7.37324215 C9.70867185,7.28123044 9.67148435,7.19085936 9.60640623,7.12578123 Z" id="Path"></path>
                <path d="M10.5839453,6.49824216 C10.6760937,6.49824216 10.7663281,6.46078124 10.8314062,6.39570311 C10.8964844,6.33062499 10.9336719,6.2402539 10.9336719,6.14824216 C10.9336719,6.05623045 10.8964844,5.96585936 10.8314062,5.90078124 C10.7663281,5.83570311 10.6760937,5.79824216 10.5839453,5.79824216 C10.4916601,5.79824216 10.4012891,5.83570311 10.3362109,5.90078124 C10.2711328,5.96585936 10.2336719,6.05623045 10.2336719,6.14824216 C10.2336719,6.2402539 10.2711328,6.33062499 10.3362109,6.39570311 C10.4012891,6.46078124 10.4916601,6.49824216 10.5839453,6.49824216 Z" id="Path"></path>
                <path d="M16.87,8.60986327 L15.8934179,8.60986327 L17.6125195,6.8907617 C17.8107617,6.69238282 17.92,6.42865232 17.92,6.14824216 C17.92,5.86783203 17.8107617,5.60410157 17.6125195,5.40585936 L16.0532421,3.84658203 C15.9166601,3.70999999 15.695039,3.70999999 15.5583203,3.84658203 C15.3600781,4.04496091 15.0963476,4.1541992 14.8159375,4.1541992 C14.5353906,4.1541992 14.2717968,4.04496091 14.0734179,3.84658203 C13.8750391,3.64833983 13.7659375,3.38460937 13.7659375,3.1041992 C13.7659375,2.82365233 13.8751758,2.56005858 14.0734179,2.36167966 C14.1390429,2.29605467 14.175957,2.20705079 14.175957,2.11421875 C14.175957,2.02138671 14.1390429,1.93238283 14.0734179,1.86675783 L12.5142773,0.307617169 C12.3158984,0.10923829 12.0523046,0 11.7717578,0 C11.4913476,0 11.2276171,0.10923829 11.029375,0.307617169 L5.24863282,6.08822265 C5.11191407,6.22480466 5.11191407,6.44642578 5.24863282,6.58314453 C5.38535157,6.71986328 5.60697265,6.71986328 5.7436914,6.58314453 L11.5242969,0.802539078 C11.5904687,0.736367168 11.6782421,0.699999999 11.7717578,0.699999999 C11.8652734,0.699999999 11.9531836,0.736367168 12.0192187,0.802539078 L13.3556445,2.13882812 C13.1671093,2.42265624 13.0659375,2.75570312 13.0659375,3.1041992 C13.0659375,3.57164062 13.2479101,4.01105466 13.5784961,4.34164062 C13.909082,4.67208983 14.3484961,4.8541992 14.8159375,4.8541992 C15.1644336,4.8541992 15.4973437,4.75302732 15.7813086,4.56449216 L17.1175976,5.90078124 C17.2540429,6.03722657 17.2540429,6.25925782 17.1175976,6.39570311 L14.9034375,8.60986327 L13.3690429,8.60986327 L14.5189843,7.45992186 C14.6555664,7.32320311 14.6555664,7.10158202 14.5189843,6.96499999 L10.9551367,3.40115233 C10.8184179,3.26443358 10.5967969,3.26443358 10.4600781,3.40115233 L5.25136716,8.60986327 L1.05,8.60986327 C0.470996084,8.60986327 0,9.08085936 0,9.65986327 L0,11.8648633 C0,12.0580468 0.15667967,12.2148633 0.349999999,12.2148633 C0.929003913,12.2148633 1.4,12.6858593 1.4,13.2648633 C1.4,13.8437304 0.929003913,14.3148633 0.349999999,14.3148633 C0.15667967,14.3148633 0,14.4715429 0,14.6648633 L0,16.8698633 C0,17.4487304 0.470996084,17.9198633 1.05,17.9198633 L16.87,17.9198633 C17.4490039,17.9198633 17.92,17.4487304 17.92,16.8698633 L17.92,14.6648633 C17.92,14.4715429 17.7633203,14.3148633 17.57,14.3148633 C16.990996,14.3148633 16.52,13.8437304 16.52,13.2648633 C16.52,12.6858593 16.990996,12.2148633 17.57,12.2148633 C17.7633203,12.2148633 17.92,12.0580468 17.92,11.8648633 L17.92,9.65986327 C17.92,9.08085936 17.4490039,8.60986327 16.87,8.60986327 Z M10.7075391,4.14353516 L13.7764648,7.2124609 L12.3790625,8.60986327 L10.9931445,8.60986327 L12.0192187,7.58365232 C12.1559375,7.44707031 12.1559375,7.22544919 12.0192187,7.08873044 C11.8826367,6.9520117 11.6610156,6.9520117 11.5242969,7.08873044 L10.0031641,8.60972656 L6.24134765,8.60972656 L10.7075391,4.14353516 Z M17.22,11.55 C16.4222461,11.7125586 15.82,12.4196679 15.82,13.2648633 C15.82,14.1099218 16.4222461,14.8170312 17.22,14.9797265 L17.22,16.8698633 C17.22,17.0627734 17.0630468,17.2198633 16.87,17.2198633 L1.05,17.2198633 C0.856953123,17.2198633 0.699999999,17.0627734 0.699999999,16.8698633 L0.699999999,14.9797265 C1.49775391,14.8170312 2.1,14.1099218 2.1,13.2648633 C2.1,12.4196679 1.49775391,11.7126953 0.699999999,11.55 L0.699999999,9.65986327 C0.699999999,9.46681639 0.856953123,9.30986327 1.05,9.30986327 L16.87,9.30986327 C17.0630468,9.30986327 17.22,9.46681639 17.22,9.65986327 L17.22,11.55 Z" id="Shape"></path>
                <path d="M7.4749609,12.6723242 C7.54003906,12.6071093 7.57749998,12.516875 7.57749998,12.4248633 C7.57749998,12.3327148 7.54003906,12.2424804 7.4749609,12.1774023 C7.40988281,12.1123242 7.31951169,12.0748633 7.22749998,12.0748633 C7.13548827,12.0748633 7.04511716,12.1123242 6.98003907,12.1774023 C6.91496091,12.2424804 6.87749999,12.3327148 6.87749999,12.4248633 C6.87749999,12.516875 6.91496091,12.6071093 6.98003907,12.6723242 C7.04511716,12.7374023 7.13548827,12.7748633 7.22749998,12.7748633 C7.31951169,12.7748633 7.40988281,12.7374023 7.4749609,12.6723242 Z" id="Path"></path>
                <path d="M10.9399609,12.6723242 C11.0050391,12.6071093 11.0425,12.516875 11.0425,12.4248633 C11.0425,12.3327148 11.0050391,12.2424804 10.9399609,12.1774023 C10.8748828,12.1123242 10.7845117,12.0748633 10.6925,12.0748633 C10.6004883,12.0748633 10.5101171,12.1123242 10.4450391,12.1774023 C10.3799609,12.2424804 10.3425,12.3327148 10.3425,12.4248633 C10.3425,12.516875 10.3799609,12.6071093 10.4450391,12.6723242 C10.5101171,12.7374023 10.6004883,12.7748633 10.6925,12.7748633 C10.7845117,12.7748633 10.8748828,12.7374023 10.9399609,12.6723242 Z" id="Path"></path>
                <path d="M9.2074609,12.6723242 C9.27253906,12.6071093 9.30999998,12.516875 9.30999998,12.4248633 C9.30999998,12.3327148 9.27253906,12.2424804 9.2074609,12.1774023 C9.14238281,12.1123242 9.05201169,12.0748633 8.95999998,12.0748633 C8.86798827,12.0748633 8.77761715,12.1123242 8.71253906,12.1774023 C8.6474609,12.2424804 8.60999998,12.3327148 8.60999998,12.4248633 C8.60999998,12.516875 8.6474609,12.6071093 8.71253906,12.6723242 C8.77761715,12.7374023 8.86798827,12.7748633 8.95999998,12.7748633 C9.05201169,12.7748633 9.14238281,12.7374023 9.2074609,12.6723242 Z" id="Path"></path>
                <path d="M5.49499999,12.7748633 C5.5870117,12.7748633 5.67738282,12.7374023 5.74246091,12.6723242 C5.80753907,12.6071093 5.84499999,12.516875 5.84499999,12.4248633 C5.84499999,12.3327148 5.80753907,12.2424804 5.74246091,12.1774023 C5.67738282,12.1123242 5.5870117,12.0748633 5.49499999,12.0748633 C5.40298828,12.0748633 5.31261716,12.1123242 5.24753907,12.1774023 C5.18246091,12.2424804 5.14499999,12.3327148 5.14499999,12.4248633 C5.14499999,12.516875 5.18246091,12.6071093 5.24753907,12.6723242 C5.31261716,12.7374023 5.40298828,12.7748633 5.49499999,12.7748633 Z" id="Path"></path>
                <path d="M12.6724609,12.6723242 C12.7375391,12.6071093 12.775,12.516875 12.775,12.4248633 C12.775,12.3327148 12.7375391,12.2424804 12.6724609,12.1774023 C12.6073828,12.1123242 12.5170117,12.0748633 12.425,12.0748633 C12.3329883,12.0748633 12.2426171,12.1123242 12.1775391,12.1774023 C12.1124609,12.2424804 12.075,12.3327148 12.075,12.4248633 C12.075,12.516875 12.1124609,12.6071093 12.1775391,12.6723242 C12.2426171,12.7374023 12.3329883,12.7748633 12.425,12.7748633 C12.5170117,12.7748633 12.6073828,12.7374023 12.6724609,12.6723242 Z" id="Path"></path>
                <path d="M5.49499999,14.4548633 L12.425,14.4548633 C12.6183203,14.4548633 12.775,14.2980468 12.775,14.1048633 C12.775,13.9115429 12.6183203,13.7548633 12.425,13.7548633 L5.49499999,13.7548633 C5.30167966,13.7548633 5.14499999,13.9115429 5.14499999,14.1048633 C5.14499999,14.2980468 5.30167966,14.4548633 5.49499999,14.4548633 Z" id="Path"></path>
                <path d="M6.76621091,15.4348633 C6.6741992,15.4348633 6.58382811,15.4723242 6.51874999,15.5374023 C6.45367186,15.6024804 6.41621091,15.6927148 6.41621091,15.7848633 C6.41621091,15.876875 6.45367186,15.9671093 6.51874999,16.0323242 C6.58382811,16.0974023 6.6741992,16.1348633 6.76621091,16.1348633 C6.85863282,16.1348633 6.94859374,16.0974023 7.01367186,16.0323242 C7.07916015,15.9671093 7.1162109,15.876875 7.1162109,15.7848633 C7.1162109,15.6927148 7.07916015,15.6024804 7.01367186,15.5374023 C6.94859374,15.4723242 6.85863282,15.4348633 6.76621091,15.4348633 Z" id="Path"></path>
                <path d="M14.28,10.3948633 L3.63999999,10.3948633 C3.44667966,10.3948633 3.28999999,10.5515429 3.28999999,10.7448633 L3.28999999,15.7848633 C3.28999999,15.9780468 3.44667966,16.1348633 3.63999999,16.1348633 L5.09796874,16.1348633 C5.29128907,16.1348633 5.44796874,15.9780468 5.44796874,15.7848633 C5.44796874,15.5915429 5.29128907,15.4348633 5.09796874,15.4348633 L3.98999999,15.4348633 L3.98999999,11.0948633 L13.93,11.0948633 L13.93,15.4348633 L8.24796873,15.4348633 C8.0546484,15.4348633 7.89796873,15.5915429 7.89796873,15.7848633 C7.89796873,15.9780468 8.0546484,16.1348633 8.24796873,16.1348633 L14.28,16.1348633 C14.4733203,16.1348633 14.63,15.9780468 14.63,15.7848633 L14.63,10.7448633 C14.63,10.5515429 14.4733203,10.3948633 14.28,10.3948633 Z" id="Path"></path>
            </g>
        </g>
    </g>
</svg>