<?xml version="1.0" encoding="UTF-8"?>
<svg width="20px" height="23px" viewBox="0 0 20 23" version="1.1" xmlns="http://www.w3.org/2000/svg" xmlns:xlink="http://www.w3.org/1999/xlink">
    <!-- Generator: Sketch 58 (84663) - https://sketch.com -->
    <title>location (4)</title>
    <desc>Created with Sketch.</desc>
    <g id="Page-1" stroke="none" stroke-width="1" fill="none" fill-rule="evenodd">
        <g id="Edit-Profile--N-" transform="translate(-97.000000, -757.000000)" fill="#BEBEBE" fill-rule="nonzero">
            <g id="Group-10" transform="translate(0.000000, 735.000000)">
                <g id="Group-19" transform="translate(24.000000, 22.000000)">
                    <g id="Group-14" transform="translate(69.000000, 0.000000)">
                        <g id="location-(4)" transform="translate(4.000000, 0.000000)">
                            <path d="M12.8492967,14.597333 C12.892327,14.5272923 12.9353573,14.4585556 12.9783876,14.387211 C14.9136337,11.1832228 15.8874971,8.38047823 15.8735262,6.05777305 C15.8556347,2.73106034 13.1540575,0.0435182069 9.82729677,0.042954495 C6.50053599,0.0423909604 3.7980483,2.72901753 3.77902958,6.05572399 C3.76487242,8.38047823 4.73892209,11.1835954 6.67416823,14.387211 C6.71719853,14.4585556 6.76022884,14.5272923 6.80325915,14.597333 C2.72897833,15.1008435 0.0279417576,16.5569816 0.0279417576,18.2858313 C0.0279417576,20.456347 4.33097243,22.1565099 9.82618477,22.1565099 C15.3213971,22.1565099 19.6244278,20.456347 19.6244278,18.2858313 C19.6244278,16.5569816 16.9233912,15.1008435 12.8492967,14.597333 Z M4.43100393,6.05777305 C4.42000686,4.12267646 5.44618806,2.32988777 7.12034495,1.35936292 C8.79450184,0.388838075 10.8602073,0.389230341 12.5339955,1.36039094 C14.2077836,2.33155155 15.2332839,4.12472984 15.2215519,6.05982212 C15.2494936,10.6903302 10.920384,16.4014392 9.82618477,17.7709579 C8.73198554,16.4014392 4.40268961,10.6901439 4.43100393,6.05777305 L4.43100393,6.05777305 Z M9.82618477,21.5045355 C4.35500234,21.5045355 0.679916102,19.8401381 0.679916102,18.2858313 C0.679916102,16.9073713 3.40498258,15.6248446 7.18736518,15.208885 C7.91889705,16.3510872 8.71711811,17.4491777 9.57787568,18.4974436 C9.63974317,18.5703763 9.73054599,18.6124223 9.82618477,18.6124223 C9.92182355,18.6124223 10.0126264,18.5703763 10.0744939,18.4974436 C10.9353152,17.4491827 11.7335985,16.3510921 12.4651906,15.208885 C16.2466418,15.6248446 18.9726397,16.9066262 18.9726397,18.2858313 C18.9724534,19.8401381 15.2973672,21.5045355 9.82618477,21.5045355 L9.82618477,21.5045355 Z" id="Shape"></path>
                            <path d="M7.16091365,19.6164178 C5.71427571,19.4312571 4.55301627,19.1052699 3.89210056,18.6989968 C3.79282831,18.6355348 3.66703689,18.6305804 3.56308091,18.6860381 C3.45912493,18.7414958 3.39318499,18.8487336 3.39060862,18.966529 C3.38803225,19.0843245 3.44922045,19.1943428 3.55065228,19.2542926 C4.28887352,19.7080668 5.54178193,20.0664664 7.07820604,20.2629901 C7.0920422,20.2647776 7.10598135,20.2656488 7.1199324,20.2656001 C7.29138479,20.264767 7.43289007,20.1312664 7.44369209,19.9601526 C7.45449411,19.7890388 7.33090045,19.638803 7.16091365,19.6164178 L7.16091365,19.6164178 Z" id="Path"></path>
                            <path d="M10.3736569,19.7721465 C9.91932396,19.7825781 9.44617686,19.7801565 8.98439275,19.7632052 C8.86792875,19.7589126 8.75802153,19.817079 8.69607208,19.9157935 C8.63412264,20.014508 8.62954257,20.1387736 8.68405713,20.2417807 C8.73857169,20.3447877 8.84389883,20.410887 8.96036284,20.4151795 C9.24685899,20.4256111 9.53782583,20.4310132 9.82618477,20.4310132 C10.0158162,20.4310132 10.2033985,20.4287778 10.3889318,20.4243072 C10.5689167,20.4201374 10.7114449,20.2708539 10.7072815,20.0908689 C10.7063817,20.0040098 10.6704556,19.9211922 10.6076469,19.861189 C10.5448383,19.8011859 10.4604665,19.769079 10.3736569,19.7721465 L10.3736569,19.7721465 Z" id="Path"></path>
                            <path d="M12.5788205,6.05777305 C12.5786147,4.53745573 11.3460054,3.30515221 9.82568805,3.30532367 C8.30537073,3.30549513 7.0730394,4.53807664 7.07317656,6.05839397 C7.07331372,7.5787113 8.30586743,8.81107044 9.82618477,8.81096757 C11.3458754,8.80911945 12.5772808,7.57746408 12.5788205,6.05777305 L12.5788205,6.05777305 Z M7.72533715,6.05777305 C7.7255429,4.89755547 8.6662155,3.95716085 9.82643309,3.95729801 C10.9866507,3.95743517 11.9271009,4.89805218 11.9270323,6.05826977 C11.9269638,7.21848737 10.9864024,8.15899323 9.82618477,8.15899323 C8.66628409,8.15776084 7.72636387,7.21767394 7.72533715,6.05777305 Z" id="Shape"></path>
                        </g>
                    </g>
                </g>
            </g>
        </g>
    </g>
</svg>