<svg xmlns="http://www.w3.org/2000/svg" width="33.537" height="39.126" viewBox="0 0 33.537 39.126">
  <path id="Icon_metro-file-pdf" data-name="Icon metro-file-pdf" d="M34.623,10.5a5.08,5.08,0,0,1,1.048,1.659,5.039,5.039,0,0,1,.437,1.921V39.234a2.087,2.087,0,0,1-2.1,2.1H4.667a2.087,2.087,0,0,1-2.1-2.1V4.3a2.087,2.087,0,0,1,2.1-2.1H24.23a5.04,5.04,0,0,1,1.921.437,5.081,5.081,0,0,1,1.659,1.048ZM24.929,5.173v8.21h8.21a2.386,2.386,0,0,0-.48-.9L25.824,5.653a2.385,2.385,0,0,0-.9-.48Zm8.384,33.362V16.177H24.23a2.087,2.087,0,0,1-2.1-2.1V5H5.365V38.535H33.313ZM22.09,25.588a16.613,16.613,0,0,0,1.834,1.223,21.666,21.666,0,0,1,2.555-.153q3.21,0,3.865,1.07a1.055,1.055,0,0,1,.044,1.135.063.063,0,0,1-.022.044l-.044.044v.022q-.131.83-1.55.83a9.006,9.006,0,0,1-2.511-.437,15.92,15.92,0,0,1-2.838-1.157,39.315,39.315,0,0,0-8.559,1.812q-3.341,5.72-5.284,5.72a1.27,1.27,0,0,1-.611-.153l-.524-.262q-.022-.022-.131-.109a.9.9,0,0,1-.131-.786,4.742,4.742,0,0,1,1.223-2,10.552,10.552,0,0,1,2.882-2.107.319.319,0,0,1,.5.131.126.126,0,0,1,.044.087q1.135-1.856,2.336-4.3a33.324,33.324,0,0,0,2.271-5.72,17.649,17.649,0,0,1-.666-3.483,8.489,8.489,0,0,1,.142-2.784q.24-.873.917-.873h.48a.921.921,0,0,1,.764.327,1.744,1.744,0,0,1,.2,1.485.474.474,0,0,1-.087.175.568.568,0,0,1,.022.175V16.2a28.591,28.591,0,0,1-.306,4.192,11.046,11.046,0,0,0,3.188,5.2ZM9.514,34.561q1.135-.524,2.991-3.45a12.447,12.447,0,0,0-1.91,1.834A7.257,7.257,0,0,0,9.514,34.561ZM18.2,14.474a6.492,6.492,0,0,0-.044,2.882q.022-.153.153-.961,0-.065.153-.939a.491.491,0,0,1,.087-.175.063.063,0,0,1-.022-.044.044.044,0,0,0-.011-.033.044.044,0,0,1-.011-.033,1.257,1.257,0,0,0-.284-.786.063.063,0,0,1-.022.044v.044ZM15.5,28.906a32.026,32.026,0,0,1,6.2-1.769,3.292,3.292,0,0,1-.284-.207,3.911,3.911,0,0,1-.349-.295,11.565,11.565,0,0,1-2.773-3.843,29.177,29.177,0,0,1-1.812,4.3q-.655,1.223-.983,1.812Zm14.1-.349q-.524-.524-3.057-.524a8.259,8.259,0,0,0,2.707.611,2.119,2.119,0,0,0,.393-.022q0-.022-.044-.065Z" transform="translate(-2.571 -2.203)" fill="#d13827"/>
</svg>
