<svg xmlns="http://www.w3.org/2000/svg" xmlns:xlink="http://www.w3.org/1999/xlink" width="182.27" height="159.556" viewBox="0 0 182.27 159.556"><defs><clipPath id="a"><path d="M0,0H182.27V159.556H0Z" transform="translate(0 0.001)" fill="none"/></clipPath></defs><g transform="translate(0 -0.001)"><path d="M0,0H182.27V159.556H0Z" transform="translate(0 0.001)" fill="none"/><g clip-path="url(#a)"><path d="M46.307,156.585C23.979,149.057,4.613,130.349.647,107.122s10.684-49.409,33.7-54.444c10.884-2.382,22.632-.254,33.03-4.253C86.99,40.885,93.655,15.373,111.773,4.733c17.458-10.252,41.39-2.858,54.4,12.656s16.8,36.923,16,57.151c-1.172,29.719-13.8,61.77-40.757,74.336-22.716,10.59-70.744,13.591-95.107,7.708" transform="translate(0 0.001)" fill="#ececec"/></g></g></svg>