<svg xmlns="http://www.w3.org/2000/svg" xmlns:xlink="http://www.w3.org/1999/xlink" width="151.892" height="132.963" viewBox="0 0 151.892 132.963"><defs><clipPath id="a"><path d="M0,0H151.892V-132.963H0Z" transform="translate(0 -0.001)" fill="none"/></clipPath></defs><g transform="translate(0 132.964)"><path d="M0,0H151.892V-132.963H0Z" transform="translate(0 -0.001)" fill="none"/><g clip-path="url(#a)"><path d="M38.589-130.487C19.983-124.214,3.844-108.624.539-89.268s8.9,41.174,28.085,45.37c9.069,1.984,18.86.212,27.525,3.544,16.342,6.284,21.9,27.544,37,36.41,14.548,8.543,34.492,2.382,45.33-10.547s14-30.769,13.335-47.626c-.977-24.766-11.5-51.475-33.964-61.948-18.931-8.824-58.953-11.325-79.256-6.422" transform="translate(0 -0.001)" fill="#f82a8a"/></g></g></svg>