<svg xmlns="http://www.w3.org/2000/svg" width="167.651" height="52.082" viewBox="0 0 167.651 52.082">
    <rect width="167.651" height="52.082" fill="none"/>
    <path d="M15.4,40.388q-.821-.069-1.642-.205a15.7,15.7,0,0,1-9.99-5.893A17.364,17.364,0,0,1,0,23.266Q0,14.3,6.877,7.151T22.856,0a16.711,16.711,0,0,1,9.819,3.041,16.2,16.2,0,0,1,6.133,8.265H49.55l-2.19,6.774H39.689a22.872,22.872,0,0,1-7.117,15.534Q25.8,40.456,17.039,40.457,16.218,40.457,15.4,40.388Z"
          transform="translate(4.151 5.322)" fill="#1c3756"/>
    <path d="M21.218,22.171H19.165a7.917,7.917,0,0,1-2.908-.547,8.345,8.345,0,0,1-2.5-1.505,11.848,11.848,0,0,1-2.977,1.505,10.034,10.034,0,0,1-3.25.547,5.868,5.868,0,0,1-.65-.034c-.205-.023-.424-.057-.65-.1a2.034,2.034,0,0,1-.65-.1,5.512,5.512,0,0,0-.65-.171A6.768,6.768,0,0,1,1.2,18.955,7.413,7.413,0,0,1,0,14.644a6.345,6.345,0,0,1,.034-.684,6.069,6.069,0,0,1,.1-.684,2.37,2.37,0,0,1,.1-.684c.068-.228.124-.456.171-.684L4.247,0h7.117L6.848,14.028a2.317,2.317,0,0,0-.1.411,1.948,1.948,0,0,0-.034.342.6.6,0,0,0,.171.445.918.918,0,0,0,.65.171,2.494,2.494,0,0,0,.411-.034,2.7,2.7,0,0,0,.411-.1,4.98,4.98,0,0,0,2.19-1.2,4.661,4.661,0,0,0,1.369-1.95.131.131,0,0,1,.034-.1.148.148,0,0,0,.034-.1L15.88,0h7.048L18.48,14.028a2.317,2.317,0,0,0-.1.411,1.948,1.948,0,0,0-.034.342.6.6,0,0,0,.171.445.918.918,0,0,0,.65.171h4.311Z"
          transform="translate(44.451 23.676)" fill="#1c3756"/>
    <path d="M14.577,14.811H10.951L8.143,23.4h8.145L14.1,30.177H6.432a5.2,5.2,0,0,1-3.992-1.648A5.442,5.442,0,0,1,.9,24.686a2.939,2.939,0,0,1,.034-.447,3.961,3.961,0,0,0,.032-.515c.046-.19.091-.354.139-.513s.089-.31.137-.447l2.6-7.962H0l2.258-6.8H6.024L8.616,0l6.432,2.121L13.131,8.014h3.629Z"
          transform="translate(67.036 15.67)" fill="#1c3756"/>
    <path d="M15.4,40.388q-.821-.069-1.642-.205a15.7,15.7,0,0,1-9.99-5.893A17.364,17.364,0,0,1,0,23.266Q0,14.3,6.877,7.151T22.856,0a16.711,16.711,0,0,1,9.819,3.041A16.165,16.165,0,0,1,38.8,11.287H49.542l-2.19,6.793H39.689a22.872,22.872,0,0,1-7.117,15.534Q25.8,40.456,17.039,40.457,16.218,40.457,15.4,40.388Z"
          transform="translate(83.527 5.322)" fill="#1c3756"/>
    <path d="M21.218,22.171H19.165a7.917,7.917,0,0,1-2.908-.547,8.345,8.345,0,0,1-2.5-1.505,11.848,11.848,0,0,1-2.977,1.505,10.034,10.034,0,0,1-3.25.547,5.868,5.868,0,0,1-.65-.034c-.205-.023-.424-.057-.65-.1a2.034,2.034,0,0,1-.65-.1,5.512,5.512,0,0,0-.65-.171A6.768,6.768,0,0,1,1.2,18.955,7.413,7.413,0,0,1,0,14.644a6.345,6.345,0,0,1,.034-.684,6.069,6.069,0,0,1,.1-.684,2.37,2.37,0,0,1,.1-.684c.068-.228.124-.456.171-.684L4.247,0h7.117L6.848,14.028a2.317,2.317,0,0,0-.1.411,1.948,1.948,0,0,0-.034.342.6.6,0,0,0,.171.445.918.918,0,0,0,.65.171,2.494,2.494,0,0,0,.411-.034,2.7,2.7,0,0,0,.411-.1,4.98,4.98,0,0,0,2.19-1.2,4.661,4.661,0,0,0,1.369-1.95.131.131,0,0,1,.034-.1.148.148,0,0,0,.034-.1L15.882,0H22.93L18.482,14.028a2.317,2.317,0,0,0-.1.411,1.948,1.948,0,0,0-.034.342.6.6,0,0,0,.171.445.922.922,0,0,0,.65.171h4.319Z"
          transform="translate(123.827 23.676)" fill="#1c3756"/>
    <path d="M14.587,14.811H10.96L8.153,23.4H16.3l-2.192,6.774H6.432a5.212,5.212,0,0,1-4-1.648A5.448,5.448,0,0,1,.891,24.686a2.939,2.939,0,0,1,.034-.447,3.961,3.961,0,0,0,.032-.515c.046-.19.091-.354.139-.513s.089-.31.137-.447l2.6-7.962H0l2.258-6.8H6.033L8.633,0l6.43,2.121L13.148,8.014h3.627Z"
          transform="translate(146.411 15.67)" fill="#1c3756"/>
</svg>